<svg width="24" height="24" viewBox="0 0 24 24" fill="none" xmlns="http://www.w3.org/2000/svg">
<path d="M11.5 22H12.5L14 20.5H10" fill="#263238"/>
<path d="M13 21H11C9.9 21 9 20.1 9 19V17H15V19C15 20.1 14.1 21 13 21Z" fill="#9FA8DA"/>
<path d="M15 19L9.2 19.8C9.35 20.15 9.65 20.5 10 20.7L14.7 20.05C14.9 19.75 15 19.4 15 19ZM9 17.85V18.85L15 18V17L9 17.85Z" fill="#5C6BC0"/>
<path d="M9 17C7.5 16.05 4.5 13 4.5 9.5C4.5 5.35 7.85 2 12 2C16.15 2 19.5 5.35 19.5 9.5C19.5 13 16.5 16.05 15 17H9Z" fill="#FFC107"/>
<path d="M15.3008 8.60039L13.8008 7.60039C13.6508 7.50039 13.4008 7.50039 13.2508 7.60039L12.0008 8.40039L10.8008 7.60039C10.6508 7.50039 10.4008 7.50039 10.2508 7.60039L8.75078 8.60039C8.65078 8.70039 8.55078 8.80039 8.55078 8.95039C8.55078 9.10039 8.55078 9.25039 8.65078 9.35039L10.5508 11.7004V17.0004H11.5508V11.5004C11.5508 11.4004 11.5008 11.3004 11.4508 11.2004L9.80078 9.15039L10.5508 8.65039L11.7508 9.45039C11.9008 9.55039 12.1508 9.55039 12.3008 9.45039L13.5008 8.65039L14.2508 9.15039L12.6008 11.2004C12.5508 11.3004 12.5008 11.4004 12.5008 11.5004V17.0004H13.5008V11.7004L15.4008 9.35039C15.5008 9.25039 15.5508 9.10039 15.5008 8.95039C15.4508 8.80039 15.4008 8.65039 15.3008 8.60039Z" fill="#FFF176"/>
</svg>
