<svg width="25" height="24" viewBox="0 0 25 24" fill="none" xmlns="http://www.w3.org/2000/svg">
<g clip-path="url(#clip0_2688_4104)">
<path d="M12.6895 1.5C10.5022 1.50248 8.4052 2.37247 6.85856 3.91911C5.31192 5.46575 4.44193 7.56273 4.43945 9.75C4.43945 16.8094 11.9395 22.1409 12.2591 22.3641C12.3852 22.4524 12.5355 22.4998 12.6895 22.4998C12.8434 22.4998 12.9937 22.4524 13.1198 22.3641C13.4395 22.1409 20.9395 16.8094 20.9395 9.75C20.937 7.56273 20.067 5.46575 18.5203 3.91911C16.9737 2.37247 14.8767 1.50248 12.6895 1.5ZM12.6895 6.75C13.2828 6.75 13.8628 6.92595 14.3562 7.25559C14.8495 7.58524 15.234 8.05377 15.4611 8.60195C15.6882 9.15013 15.7476 9.75333 15.6318 10.3353C15.5161 10.9172 15.2303 11.4518 14.8108 11.8713C14.3912 12.2909 13.8567 12.5766 13.2747 12.6924C12.6928 12.8081 12.0896 12.7487 11.5414 12.5216C10.9932 12.2946 10.5247 11.9101 10.195 11.4167C9.8654 10.9234 9.68945 10.3433 9.68945 9.75C9.68945 8.95435 10.0055 8.19129 10.5681 7.62868C11.1307 7.06607 11.8938 6.75 12.6895 6.75Z" fill="white"/>
</g>
<defs>
<clipPath id="clip0_2688_4104">
<rect width="24" height="24" fill="white" transform="translate(0.689453)"/>
</clipPath>
</defs>
</svg>
