<svg width="33" height="32" viewBox="0 0 33 32" fill="none" xmlns="http://www.w3.org/2000/svg">
<path d="M4.02344 10L10.6899 3.33328L17.3566 9.99977L10.6902 16.6665L4.02344 10Z" fill="#FF9800"/>
<path d="M6.02344 5.33301H15.3561V14.6663H6.02344V5.33301Z" fill="#FF9800"/>
<path d="M7.35547 9.99935C7.35547 11.8407 8.84747 13.3327 10.6888 13.3327C12.5301 13.3327 14.0221 11.8407 14.0221 9.99935C14.0221 8.15735 12.5301 6.66602 10.6888 6.66602C8.84747 6.66602 7.35547 8.15735 7.35547 9.99935Z" fill="#FFEB3B"/>
<path d="M4.68945 15.1133V28H28.6895V12H26.6895H22.6895C22.6895 12 10.8181 12.4287 4.68945 15.1133Z" fill="#8BC34A"/>
<path d="M4.68945 19.334V22.6667C14.0228 12 23.9228 12.054 24.0228 12C19.3561 12 12.6895 12.6667 4.68945 19.334Z" fill="#689F38"/>
<path d="M24.0234 28C26.0234 15.3333 28.6901 12 28.6901 12H26.6901H24.0234C22.0234 12.6667 12.6901 16 6.02344 28H8.76344C14.0234 18.6667 19.4641 14.8293 26.0234 12C19.3568 16 15.0348 24.9567 14.0234 28H16.6901C17.9434 24.3973 21.4261 15.8693 27.3568 12C24.5134 16.4613 22.5734 24.8647 22.0234 28H24.0234Z" fill="#689F38"/>
</svg>
