<svg width="33" height="32" viewBox="0 0 33 32" fill="none" xmlns="http://www.w3.org/2000/svg">
<path d="M16.0977 8.66699L18.031 12.6003L18.631 13.867L20.031 14.067L24.3643 14.667L21.231 17.7337L20.231 18.7337L20.4977 20.1337L21.231 24.467L17.3643 22.4003L16.0977 21.7337L14.831 22.4003L10.9643 24.467L11.6977 20.1337L11.9643 18.7337L10.9643 17.7337L7.83099 14.667L12.1643 14.067L13.5643 13.867L14.1643 12.6003L16.0977 8.66699ZM16.0977 2.66699L11.7643 11.467L2.09766 12.867L9.09766 19.667L7.43099 29.3337L16.0977 24.8003L24.7643 29.3337L23.0977 19.667L30.0977 12.867L20.431 11.467L16.0977 2.66699Z" fill="#FFCA28"/>
</svg>
