<svg width="37" height="18" viewBox="0 0 37 18" fill="none" xmlns="http://www.w3.org/2000/svg">
<path d="M9.1 18.004L9.724 15.628C10.844 15.628 11.892 15.604 12.868 15.556C13.844 15.492 14.732 15.42 15.532 15.34C16.332 15.26 17.02 15.172 17.596 15.076C18.188 14.98 18.636 14.884 18.94 14.788C19.484 14.612 19.98 14.388 20.428 14.116C20.876 13.844 21.236 13.524 21.508 13.156C21.78 12.772 21.916 12.34 21.916 11.86C21.916 11.604 21.868 11.34 21.772 11.068C21.676 10.78 21.54 10.516 21.364 10.276C21.204 10.02 21.004 9.82 20.764 9.676C20.54 9.516 20.3 9.436 20.044 9.436C19.692 9.436 19.364 9.564 19.06 9.82C18.756 10.06 18.508 10.372 18.316 10.756C18.14 11.14 18.052 11.54 18.052 11.956C18.052 12.404 18.164 12.804 18.388 13.156C18.628 13.508 18.924 13.82 19.276 14.092C19.644 14.364 20.02 14.588 20.404 14.764L17.836 15.676C17.564 15.436 17.26 15.148 16.924 14.812C16.588 14.476 16.292 14.068 16.036 13.588C15.796 13.092 15.676 12.532 15.676 11.908C15.676 11.236 15.796 10.612 16.036 10.036C16.292 9.46 16.628 8.956 17.044 8.524C17.476 8.076 17.956 7.732 18.484 7.492C19.012 7.236 19.556 7.108 20.116 7.108C20.932 7.108 21.652 7.332 22.276 7.78C22.9 8.228 23.388 8.812 23.74 9.532C24.092 10.236 24.268 10.964 24.268 11.716C24.268 12.42 24.132 13.052 23.86 13.612C23.604 14.172 23.244 14.668 22.78 15.1C22.332 15.516 21.812 15.884 21.22 16.204C20.644 16.508 20.044 16.764 19.42 16.972C19.036 17.1 18.492 17.228 17.788 17.356C17.084 17.468 16.268 17.572 15.34 17.668C14.412 17.764 13.412 17.844 12.34 17.908C11.284 17.972 10.204 18.004 9.1 18.004ZM25.972 17.62C25.124 17.62 24.284 17.58 23.452 17.5C22.636 17.404 21.852 17.268 21.1 17.092C20.348 16.916 19.668 16.7 19.06 16.444L20.716 14.884C21.196 14.964 21.756 15.036 22.396 15.1C23.052 15.148 23.716 15.188 24.388 15.22C25.06 15.236 25.668 15.244 26.212 15.244C26.628 15.244 26.924 15.356 27.1 15.58C27.292 15.804 27.388 16.068 27.388 16.372C27.388 16.708 27.26 17.004 27.004 17.26C26.748 17.5 26.404 17.62 25.972 17.62ZM9.1 18.004C7.58 18.004 6.26 17.9 5.14 17.692C4.036 17.484 3.116 17.172 2.38 16.756C1.66 16.34 1.124 15.82 0.772 15.196C0.42 14.572 0.244 13.836 0.244 12.988C0.244 12.54 0.276 12.092 0.34 11.644C0.404 11.196 0.492 10.748 0.604 10.3C0.732 9.852 0.852 9.428 0.964 9.028L3.1 9.532C3.036 9.788 2.964 10.084 2.884 10.42C2.804 10.756 2.74 11.092 2.692 11.428C2.644 11.748 2.62 12.036 2.62 12.292C2.62 13.06 2.828 13.692 3.244 14.188C3.676 14.668 4.404 15.028 5.428 15.268C6.468 15.508 7.9 15.628 9.724 15.628L10.204 17.236L9.1 18.004ZM19.972 4.684C19.588 4.684 19.26 4.556 18.988 4.3C18.732 4.044 18.604 3.724 18.604 3.34C18.604 2.972 18.732 2.652 18.988 2.38C19.26 2.108 19.588 1.972 19.972 1.972C20.34 1.972 20.652 2.108 20.908 2.38C21.18 2.652 21.316 2.972 21.316 3.34C21.316 3.724 21.18 4.044 20.908 4.3C20.652 4.556 20.34 4.684 19.972 4.684ZM25.9609 17.62L26.1769 15.244C27.0409 15.244 27.6489 15.164 28.0009 15.004C28.3529 14.828 28.5609 14.524 28.6249 14.092C28.6889 13.644 28.7049 13.012 28.6729 12.196L28.2169 0.243999H30.5929L31.0729 12.124C31.1049 12.988 31.0729 13.764 30.9769 14.452C30.8809 15.14 30.6569 15.724 30.3049 16.204C29.9689 16.668 29.4489 17.02 28.7449 17.26C28.0569 17.5 27.1289 17.62 25.9609 17.62ZM34.5886 17.5L34.1086 0.243999H36.4846L36.9646 17.5H34.5886Z" fill="#575757"/>
</svg>
