<svg width="28" height="20" viewBox="0 0 28 20" fill="none" xmlns="http://www.w3.org/2000/svg">
<path d="M27.59 0.839999V2.97H24.44V19.5H22.13C21.55 18.32 20.83 17.29 19.97 16.41C19.11 15.51 18.19 14.74 17.21 14.1L17.96 12.12C18.72 12.56 19.51 13.16 20.33 13.92C21.15 14.68 21.78 15.45 22.22 16.23C22.2 15.93 22.18 15.65 22.16 15.39C22.16 15.13 22.15 14.86 22.13 14.58C22.13 14.3 22.13 14 22.13 13.68V2.97H0.2V0.839999H27.59ZM11.78 16.77C10.42 16.77 9.12 16.45 7.88 15.81C6.64 15.17 5.47 14.09 4.37 12.57C3.29 11.03 2.29 8.92 1.37 6.24L3.56 5.52C4.28 7.6 5.03 9.31 5.81 10.65C6.61 11.97 7.5 12.94 8.48 13.56C9.46 14.18 10.58 14.49 11.84 14.49C12.94 14.49 13.82 14.32 14.48 13.98C15.16 13.62 15.65 13.14 15.95 12.54C16.25 11.92 16.4 11.24 16.4 10.5C16.4 9.34 16.08 8.4 15.44 7.68C14.82 6.96 14.04 6.6 13.1 6.6C12.44 6.6 11.94 6.75 11.6 7.05C11.26 7.33 11.09 7.76 11.09 8.34C11.09 8.48 11.11 8.67 11.15 8.91C11.19 9.15 11.25 9.37 11.33 9.57L9.05 10.02C8.91 9.6 8.8 9.22 8.72 8.88C8.66 8.52 8.63 8.18 8.63 7.86C8.63 7.12 8.83 6.5 9.23 6C9.65 5.5 10.18 5.13 10.82 4.89C11.48 4.63 12.17 4.5 12.89 4.5C14.07 4.5 15.09 4.77 15.95 5.31C16.81 5.83 17.48 6.55 17.96 7.47C18.44 8.39 18.68 9.46 18.68 10.68C18.68 11.76 18.43 12.77 17.93 13.71C17.43 14.63 16.67 15.37 15.65 15.93C14.63 16.49 13.34 16.77 11.78 16.77ZM10.82 5.55C10.72 4.91 10.42 4.35 9.92 3.87C9.44 3.37 8.73 3.02 7.79 2.82L8.51 1.47L9.86 1.83C11 2.27 11.82 2.77 12.32 3.33C12.82 3.89 13.11 4.6 13.19 5.46L10.82 5.55Z" fill="#575757"/>
</svg>
