<svg width="24" height="20" viewBox="0 0 24 20" fill="none" xmlns="http://www.w3.org/2000/svg">
<path d="M17.96 19.5V8.49L18.29 9.15C17.69 9.29 17.1 9.47 16.52 9.69C15.94 9.91 15.39 10.17 14.87 10.47C14.35 10.77 13.84 11.11 13.34 11.49L13.88 10.62C13.86 11.78 13.75 12.8 13.55 13.68C13.35 14.54 13.05 15.21 12.65 15.69C12.25 16.17 11.74 16.41 11.12 16.41C10.64 16.41 10.23 16.27 9.89 15.99C9.55 15.69 9.38 15.17 9.38 14.43C9.38 13.77 9.55 13.03 9.89 12.21C10.25 11.39 10.72 10.68 11.3 10.08C11.28 9.5 11.22 8.91 11.12 8.31C11.02 7.69 10.89 7.14 10.73 6.66C10.57 6.16 10.39 5.8 10.19 5.58L11.03 5.7C10.45 5.88 9.85 6.12 9.23 6.42C8.61 6.7 8.03 7.01 7.49 7.35C6.97 7.67 6.54 7.98 6.2 8.28L6.62 7.23C6.62 8.45 6.52 9.52 6.32 10.44C6.14 11.34 5.85 12.04 5.45 12.54C5.05 13.04 4.51 13.29 3.83 13.29C3.35 13.29 2.94 13.15 2.6 12.87C2.28 12.57 2.12 12.06 2.12 11.34C2.12 10.6 2.3 9.84 2.66 9.06C3.04 8.26 3.49 7.57 4.01 6.99C3.97 5.77 3.82 4.82 3.56 4.14C3.3 3.46 3.06 3.02 2.84 2.82L4.13 3.33H0.29V0.839999H5.27C5.45 1.22 5.63 1.71 5.81 2.31C6.01 2.91 6.17 3.54 6.29 4.2C6.41 4.84 6.47 5.46 6.47 6.06L5.75 5.94C6.07 5.58 6.57 5.2 7.25 4.8C7.95 4.38 8.73 3.99 9.59 3.63C10.47 3.25 11.35 2.97 12.23 2.79C12.43 3.11 12.62 3.54 12.8 4.08C12.98 4.6 13.14 5.16 13.28 5.76C13.42 6.36 13.53 6.96 13.61 7.56C13.71 8.14 13.76 8.66 13.76 9.12L12.92 9.03C13.32 8.69 13.8 8.36 14.36 8.04C14.92 7.72 15.54 7.42 16.22 7.14C16.9 6.86 17.59 6.64 18.29 6.48L17.96 7.35V0.839999H23.66V3.33H20.87V19.5H17.96Z" fill="#575757"/>
</svg>
