<svg width="22" height="16" viewBox="0 0 22 16" fill="none" xmlns="http://www.w3.org/2000/svg">
<path d="M10.7 15.86C8.9 15.86 7.33 15.65 5.99 15.23C4.67 14.79 3.57 14.18 2.69 13.4C1.81 12.62 1.15 11.71 0.71 10.67C0.29 9.63 0.0800001 8.51 0.0800001 7.31C0.0800001 5.87 0.33 4.64 0.83 3.62C1.33 2.6 2 1.83 2.84 1.31C3.7 0.77 4.67 0.5 5.75 0.5C6.55 0.5 7.24 0.66 7.82 0.979999C8.42 1.28 8.88 1.72 9.2 2.3C9.54 2.86 9.71 3.53 9.71 4.31C9.71 5.11 9.54 5.83 9.2 6.47C8.86 7.09 8.35 7.58 7.67 7.94C6.99 8.28 6.12 8.45 5.06 8.45C4.06 8.45 3.19 8.22 2.45 7.76C1.71 7.3 1.14 6.84 0.74 6.38L1.46 4.52C1.62 4.74 1.84 5 2.12 5.3C2.42 5.58 2.8 5.83 3.26 6.05C3.72 6.25 4.27 6.35 4.91 6.35C5.71 6.35 6.31 6.18 6.71 5.84C7.13 5.5 7.34 5.03 7.34 4.43C7.34 3.85 7.18 3.41 6.86 3.11C6.54 2.79 6.12 2.63 5.6 2.63C4.66 2.63 3.9 3.02 3.32 3.8C2.74 4.58 2.45 5.68 2.45 7.1V7.37C2.45 8.39 2.72 9.37 3.26 10.31C3.82 11.25 4.7 12.02 5.9 12.62C7.12 13.2 8.72 13.49 10.7 13.49C13.66 13.49 15.86 12.97 17.3 11.93C18.74 10.87 19.46 9.21 19.46 6.95C19.46 6.21 19.35 5.53 19.13 4.91C18.91 4.27 18.57 3.75 18.11 3.35C17.67 2.95 17.1 2.75 16.4 2.75C15.94 2.75 15.51 2.91 15.11 3.23C14.73 3.53 14.54 4.02 14.54 4.7C14.54 5.48 14.8 6.13 15.32 6.65C15.84 7.15 16.52 7.54 17.36 7.82V9.98H8.09V7.76H14.66L14.39 7.97C13.69 7.63 13.14 7.14 12.74 6.5C12.36 5.86 12.17 5.12 12.17 4.28C12.17 3.68 12.32 3.09 12.62 2.51C12.92 1.93 13.39 1.45 14.03 1.07C14.69 0.69 15.52 0.5 16.52 0.5C17.56 0.5 18.48 0.78 19.28 1.34C20.1 1.9 20.75 2.67 21.23 3.65C21.71 4.61 21.95 5.72 21.95 6.98C21.95 8.48 21.69 9.79 21.17 10.91C20.67 12.03 19.93 12.96 18.95 13.7C17.99 14.42 16.81 14.96 15.41 15.32C14.03 15.68 12.46 15.86 10.7 15.86Z" fill="#575757"/>
</svg>
