<svg width="24" height="18" viewBox="0 0 24 18" fill="none" xmlns="http://www.w3.org/2000/svg">
<path d="M11.63 15.43C14.91 15.43 17.34 14.81 18.92 13.57C20.52 12.33 21.32 10.36 21.32 7.66C21.32 6.76 21.2 5.95 20.96 5.23C20.72 4.49 20.36 3.91 19.88 3.49C19.4 3.05 18.79 2.83 18.05 2.83C17.59 2.83 17.15 3 16.73 3.34C16.33 3.66 16.13 4.19 16.13 4.93C16.13 5.67 16.44 6.32 17.06 6.88C17.68 7.44 18.45 7.86 19.37 8.14V10.27H10.19V7.99H15.56C15.02 7.53 14.59 7.01 14.27 6.43C13.95 5.85 13.79 5.16 13.79 4.36C13.79 3.74 13.94 3.15 14.24 2.59C14.56 2.01 15.03 1.54 15.65 1.18C16.29 0.799999 17.08 0.609999 18.02 0.609999C19.24 0.609999 20.28 0.909999 21.14 1.51C22 2.11 22.65 2.94 23.09 4C23.55 5.04 23.78 6.24 23.78 7.6C23.78 10 23.3 11.96 22.34 13.48C21.38 14.98 19.99 16.09 18.17 16.81C16.37 17.51 14.21 17.86 11.69 17.86C9.13 17.86 6.99 17.45 5.27 16.63C3.55 15.79 2.26 14.64 1.4 13.18C0.54 11.72 0.11 10.05 0.11 8.17C0.11 6.55 0.38 5.18 0.92 4.06C1.46 2.94 2.19 2.09 3.11 1.51C4.05 0.909999 5.1 0.609999 6.26 0.609999C7.56 0.609999 8.6 0.969999 9.38 1.69C10.16 2.41 10.55 3.39 10.55 4.63C10.55 5.91 10.11 6.99 9.23 7.87C8.35 8.73 7.06 9.16 5.36 9.16C4.78 9.16 4.25 9.09 3.77 8.95C3.31 8.81 2.89 8.63 2.51 8.41C2.55 9.61 2.88 10.75 3.5 11.83C4.14 12.89 5.12 13.76 6.44 14.44C7.76 15.1 9.49 15.43 11.63 15.43ZM6.26 2.71C5.32 2.71 4.54 3.01 3.92 3.61C3.3 4.21 2.88 5.07 2.66 6.19C2.98 6.43 3.34 6.64 3.74 6.82C4.16 6.98 4.64 7.06 5.18 7.06C6.24 7.06 7.01 6.84 7.49 6.4C7.97 5.96 8.21 5.4 8.21 4.72C8.21 4.08 8.03 3.59 7.67 3.25C7.31 2.89 6.84 2.71 6.26 2.71Z" fill="#575757"/>
</svg>
