<svg width="44" height="18" viewBox="0 0 44 18" fill="none" xmlns="http://www.w3.org/2000/svg">
<path d="M10.51 0.539999C11.39 0.539999 12.3 0.619999 13.24 0.78C14.2 0.939999 15.08 1.19 15.88 1.53C15.98 1.57 16.1 1.65 16.24 1.77C16.38 1.87 16.5 1.94 16.6 1.98C17.7 2.26 18.55 2.64 19.15 3.12C19.75 3.6 20.17 4.13 20.41 4.71C20.67 5.27 20.8 5.86 20.8 6.48C20.8 6.96 20.72 7.41 20.56 7.83C20.4 8.25 20.12 8.63 19.72 8.97C19.34 9.31 18.82 9.63 18.16 9.93L18.28 9.84C19.16 10.12 19.85 10.57 20.35 11.19C20.87 11.81 21.13 12.56 21.13 13.44C21.13 14.22 20.93 14.95 20.53 15.63C20.15 16.31 19.55 16.86 18.73 17.28C17.91 17.68 16.83 17.88 15.49 17.88C13.97 17.88 12.7 17.55 11.68 16.89C10.68 16.23 9.93 15.34 9.43 14.22C8.93 13.1 8.68 11.85 8.68 10.47C8.68 9.35 8.85 8.28 9.19 7.26C9.53 6.24 10.05 5.29 10.75 4.41C11.47 3.53 12.4 2.75 13.54 2.07C13.64 2.01 13.74 1.95 13.84 1.89C13.94 1.83 14.04 1.77 14.14 1.71C14.86 1.35 15.66 1.07 16.54 0.869998C17.42 0.649999 18.43 0.539999 19.57 0.539999C20.93 0.539999 22.06 0.709999 22.96 1.05C23.86 1.39 24.61 1.84 25.21 2.4C25.83 2.94 26.36 3.54 26.8 4.2L27.58 10.11V17.52H24.97V9.09C24.97 7.61 24.85 6.49 24.61 5.73C24.37 4.97 24 4.36 23.5 3.9C23.06 3.5 22.52 3.18 21.88 2.94C21.24 2.68 20.35 2.55 19.21 2.55C18.67 2.55 18.15 2.59 17.65 2.67C17.17 2.73 16.73 2.82 16.33 2.94C15.39 3.22 14.59 3.64 13.93 4.2C13.27 4.76 12.74 5.4 12.34 6.12C11.94 6.84 11.65 7.57 11.47 8.31C11.29 9.03 11.2 9.71 11.2 10.35C11.2 12.11 11.57 13.47 12.31 14.43C13.05 15.39 14.12 15.87 15.52 15.87C16.56 15.87 17.33 15.66 17.83 15.24C18.35 14.82 18.61 14.2 18.61 13.38C18.61 12.64 18.32 12.06 17.74 11.64C17.18 11.2 16.29 10.98 15.07 10.98H14.5V8.88H14.92C16.16 8.88 17.03 8.66 17.53 8.22C18.03 7.78 18.28 7.19 18.28 6.45C18.28 5.51 17.95 4.76 17.29 4.2C16.65 3.62 15.69 3.22 14.41 3C13.63 2.8 12.94 2.69 12.34 2.67C11.74 2.63 11.2 2.61 10.72 2.61C9.06 2.61 7.68 2.91 6.58 3.51C5.5 4.09 4.69 4.89 4.15 5.91C3.61 6.91 3.34 8.05 3.34 9.33C3.34 10.37 3.49 11.3 3.79 12.12C4.09 12.94 4.51 13.66 5.05 14.28C5.61 14.9 6.26 15.44 7 15.9L5.5 17.79C4.64 17.29 3.84 16.65 3.1 15.87C2.38 15.07 1.79 14.12 1.33 13.02C0.89 11.9 0.67 10.63 0.67 9.21C0.67 7.97 0.87 6.83 1.27 5.79C1.67 4.73 2.28 3.81 3.1 3.03C3.92 2.25 4.94 1.64 6.16 1.2C7.4 0.759999 8.85 0.539999 10.51 0.539999ZM36.79 17.88C35.51 17.88 34.44 17.59 33.58 17.01C32.72 16.43 32.07 15.67 31.63 14.73C31.21 13.77 31 12.74 31 11.64C31 9.74 31.51 8.23 32.53 7.11C33.55 5.97 34.92 5.4 36.64 5.4C37.76 5.4 38.73 5.69 39.55 6.27C40.39 6.85 41.05 7.59 41.53 8.49C42.01 9.39 42.27 10.34 42.31 11.34L41.56 11.25C41.42 10.63 41.15 10.04 40.75 9.48C40.37 8.9 39.87 8.43 39.25 8.07C38.65 7.69 37.95 7.5 37.15 7.5C35.89 7.5 34.97 7.88 34.39 8.64C33.81 9.38 33.52 10.36 33.52 11.58C33.52 12.4 33.63 13.13 33.85 13.77C34.09 14.41 34.45 14.91 34.93 15.27C35.41 15.61 36.04 15.78 36.82 15.78C37.64 15.78 38.33 15.59 38.89 15.21C39.47 14.83 39.91 14.22 40.21 13.38C40.53 12.54 40.69 11.44 40.69 10.08C40.69 9.86 40.67 9.63 40.63 9.39C40.61 9.13 40.58 8.86 40.54 8.58C40.52 8.42 40.5 8.24 40.48 8.04C40.46 7.84 40.43 7.65 40.39 7.47C40.23 6.71 39.87 5.97 39.31 5.25C38.77 4.51 38.01 3.9 37.03 3.42C36.05 2.94 34.81 2.7 33.31 2.7C32.45 2.7 31.67 2.8 30.97 3C30.29 3.2 29.69 3.53 29.17 3.99C28.85 4.29 28.57 4.65 28.33 5.07C28.09 5.47 27.9 5.97 27.76 6.57C27.64 7.17 27.58 7.93 27.58 8.85V11.4L26.02 3.9C26.52 3.26 27.09 2.69 27.73 2.19C28.37 1.67 29.14 1.27 30.04 0.989999C30.94 0.689999 32.03 0.539999 33.31 0.539999C34.95 0.539999 36.38 0.779999 37.6 1.26C38.84 1.74 39.87 2.42 40.69 3.3C41.53 4.16 42.15 5.18 42.55 6.36C42.97 7.54 43.18 8.84 43.18 10.26C43.18 12.04 42.9 13.5 42.34 14.64C41.78 15.76 41.02 16.58 40.06 17.1C39.1 17.62 38.01 17.88 36.79 17.88Z" fill="#575757"/>
</svg>
