<svg width="31" height="23" viewBox="0 0 31 23" fill="none" xmlns="http://www.w3.org/2000/svg">
<path d="M9.63 21.22C7.69 21.22 6.07 20.98 4.77 20.5C3.47 20.04 2.49 19.39 1.83 18.55C1.19 17.73 0.87 16.78 0.87 15.7C0.87 15.2 0.98 14.71 1.2 14.23C1.42 13.75 1.76 13.35 2.22 13.03C2.48 12.85 2.76 12.7 3.06 12.58C3.36 12.46 3.75 12.37 4.23 12.31C4.73 12.25 5.38 12.22 6.18 12.22H28.59L28.68 14.38H6.51C5.89 14.38 5.41 14.39 5.07 14.41C4.75 14.43 4.51 14.47 4.35 14.53C4.19 14.59 4.03 14.68 3.87 14.8C3.57 15.04 3.42 15.38 3.42 15.82C3.42 16.8 3.95 17.58 5.01 18.16C6.07 18.74 7.67 19.03 9.81 19.03H10.32C12.34 19.03 14.07 18.79 15.51 18.31C16.97 17.85 18.17 17.21 19.11 16.39C20.07 15.57 20.79 14.64 21.27 13.6L21.39 13.03C21.57 12.53 21.7 12.03 21.78 11.53C21.86 11.01 21.9 10.49 21.9 9.97C21.9 8.81 21.7 7.71 21.3 6.67C20.9 5.63 20.28 4.76 19.44 4.06C18.62 3.34 17.56 2.88 16.26 2.68C16 2.64 15.75 2.62 15.51 2.62C15.29 2.6 15.05 2.59 14.79 2.59C14.17 2.59 13.6 2.7 13.08 2.92C12.56 3.14 12.14 3.47 11.82 3.91C11.52 4.35 11.37 4.91 11.37 5.59C11.37 6.33 11.59 6.96 12.03 7.48C12.49 7.98 13.13 8.23 13.95 8.23C14.71 8.23 15.31 8 15.75 7.54C16.21 7.06 16.44 6.38 16.44 5.5C16.44 4.84 16.33 4.25 16.11 3.73C15.91 3.19 15.55 2.68 15.03 2.2L16.74 1.69C17.1 1.99 17.43 2.34 17.73 2.74C18.05 3.14 18.3 3.59 18.48 4.09C18.68 4.57 18.78 5.08 18.78 5.62C18.78 6.32 18.67 6.96 18.45 7.54C18.25 8.1 17.94 8.59 17.52 9.01C17.1 9.41 16.58 9.72 15.96 9.94C15.36 10.16 14.67 10.27 13.89 10.27C12.99 10.27 12.17 10.1 11.43 9.76C10.69 9.42 10.1 8.91 9.66 8.23C9.22 7.55 9 6.71 9 5.71C9 4.47 9.29 3.47 9.87 2.71C10.45 1.95 11.2 1.4 12.12 1.06C13.06 0.699999 14.05 0.519999 15.09 0.519999C16.63 0.519999 17.98 0.779999 19.14 1.3C20.32 1.82 21.3 2.53 22.08 3.43C22.88 4.33 23.48 5.34 23.88 6.46C24.28 7.58 24.48 8.74 24.48 9.94C24.48 10.48 24.45 11.01 24.39 11.53C24.33 12.03 24.24 12.52 24.12 13L23.94 13.66C23.38 15.3 22.44 16.68 21.12 17.8C19.82 18.92 18.24 19.77 16.38 20.35C14.54 20.93 12.5 21.22 10.26 21.22H9.63ZM28.41 22.12V0.879999H30.99V22.12H28.41Z" fill="#575757"/>
</svg>
