<svg width="26" height="19" viewBox="0 0 26 19" fill="none" xmlns="http://www.w3.org/2000/svg">
<path d="M9.79 15.41C8.87 15.41 8 15.28 7.18 15.02C6.36 14.76 5.6 14.32 4.9 13.7C4.2 13.06 3.57 12.21 3.01 11.15L3.64 9.41C4.76 9.25 5.71 8.83 6.49 8.15C7.27 7.45 7.66 6.6 7.66 5.6C7.66 4.64 7.38 3.9 6.82 3.38C6.28 2.86 5.42 2.6 4.24 2.6C3.8 2.6 3.3 2.66 2.74 2.78C2.2 2.88 1.7 3.04 1.24 3.26L0.43 1.22C0.91 0.999999 1.5 0.809999 2.2 0.649999C2.9 0.489999 3.61 0.409999 4.33 0.409999C5.55 0.409999 6.58 0.619999 7.42 1.04C8.28 1.44 8.93 2.03 9.37 2.81C9.83 3.59 10.06 4.54 10.06 5.66C10.06 6.76 9.73 7.75 9.07 8.63C8.43 9.49 7.58 10.17 6.52 10.67C5.46 11.15 4.29 11.39 3.01 11.39C2.47 11.39 2.02 11.32 1.66 11.18C1.3 11.04 1.02 10.84 0.82 10.58C0.64 10.3 0.55 9.97 0.55 9.59C0.55 9.19 0.69 8.85 0.97 8.57C1.27 8.27 1.72 8.12 2.32 8.12C2.94 8.12 3.45 8.25 3.85 8.51C4.25 8.75 4.67 9.13 5.11 9.65L5.53 10.82C5.89 11.6 6.43 12.2 7.15 12.62C7.87 13.04 8.69 13.25 9.61 13.25C10.37 13.25 11.02 13.14 11.56 12.92C12.1 12.7 12.54 12.4 12.88 12.02C13.38 11.46 13.7 10.82 13.84 10.1C14 9.38 14.08 8.47 14.08 7.37V5.09L16.48 5.39V8.03C16.48 9.67 16.19 11.04 15.61 12.14C15.05 13.24 14.26 14.06 13.24 14.6C12.24 15.14 11.09 15.41 9.79 15.41ZM18.22 11.66C17.72 11.66 17.23 11.57 16.75 11.39C16.27 11.21 15.83 10.89 15.43 10.43C15.03 9.97 14.69 9.33 14.41 8.51L16.15 7.82C16.31 8.46 16.57 8.9 16.93 9.14C17.29 9.38 17.71 9.5 18.19 9.5C18.91 9.5 19.53 9.31 20.05 8.93C20.57 8.53 21.05 7.99 21.49 7.31L22 9.77C21.5 10.37 20.96 10.84 20.38 11.18C19.82 11.5 19.1 11.66 18.22 11.66ZM25.18 18.5C24.32 18.5 23.6 18.41 23.02 18.23C22.46 18.03 22.01 17.75 21.67 17.39C21.35 17.05 21.11 16.63 20.95 16.13C20.81 15.63 20.74 14.94 20.74 14.06V0.409999L23.14 0.74V13.94C23.14 14.48 23.17 14.88 23.23 15.14C23.29 15.38 23.38 15.58 23.5 15.74C23.72 16.02 24.04 16.19 24.46 16.25C24.9 16.29 25.33 16.31 25.75 16.31L25.51 18.5H25.18Z" fill="#575757"/>
</svg>
