<svg width="23" height="20" viewBox="0 0 23 20" fill="none" xmlns="http://www.w3.org/2000/svg">
<path d="M13.75 13.02C13.75 15.96 11.59 17.64 8.65 17.64C5.08 17.64 2.68 15.54 0.37 9.18L2.5 8.31C4.12 12.99 5.83 15.45 8.44 15.45C10.21 15.45 11.38 14.46 11.38 12.75C11.38 11.37 10.45 10.29 9.28 9.45C8.53 9.66 7.63 9.81 6.61 9.9L6.13 7.77C9.88 7.29 10.87 6.48 10.87 4.83C10.87 3.51 10 2.67 8.38 2.67C7.03 2.67 5.74 3.09 4.45 3.87L3.67 1.77C5.05 0.989999 6.61 0.539999 8.47 0.539999C11.89 0.539999 13.27 2.55 13.27 4.86C13.27 6.42 12.7 7.68 11.35 8.55L11.41 8.61C12.37 8.85 13.42 8.94 14.35 8.94C15.28 8.94 16.27 8.85 17.32 8.58V2.97H15.13V0.839999H22.87V2.97H19.75V19.5H17.32V10.8C16.51 11.01 15.67 11.07 14.83 11.07C14.35 11.07 13.78 11.04 13.21 10.95C13.57 11.58 13.75 12.3 13.75 13.02Z" fill="#575757"/>
</svg>
