<svg width="33" height="33" viewBox="0 0 33 33" fill="none" xmlns="http://www.w3.org/2000/svg">
<path d="M13.3555 29.8333C10.0221 29.8333 9.35547 25.2667 9.35547 17.1667C9.35547 9.06667 12.0415 2.5 15.3555 2.5C18.6695 2.5 21.3555 9.06667 21.3555 17.1667C21.3555 25.2667 20.6888 29.8333 17.3555 29.8333" fill="#EA8711"/>
<path d="M17.3561 25.1663C17.3561 25.9023 16.7588 26.4997 16.0228 26.4997H14.6895C13.9535 26.4997 13.3561 25.9023 13.3561 25.1663C13.3561 24.4303 13.9535 23.833 14.6895 23.833H16.0228C16.7588 23.833 17.3561 24.4303 17.3561 25.1663ZM17.3561 21.833C17.3561 21.097 16.7588 20.4997 16.0228 20.4997H14.6895C13.9535 20.4997 13.3561 21.097 13.3561 21.833C13.3561 22.569 13.9535 23.1663 14.6895 23.1663H16.0228C16.7588 23.1663 17.3561 22.569 17.3561 21.833ZM17.3561 18.4997C17.3561 17.7637 16.7588 17.1663 16.0228 17.1663H14.6895C13.9535 17.1663 13.3561 17.7637 13.3561 18.4997C13.3561 19.2357 13.9535 19.833 14.6895 19.833H16.0228C16.7588 19.833 17.3561 19.2357 17.3561 18.4997ZM17.3561 15.1663C17.3561 14.4303 16.7588 13.833 16.0228 13.833H14.6895C13.9535 13.833 13.3561 14.4303 13.3561 15.1663C13.3561 15.9023 13.9535 16.4997 14.6895 16.4997H16.0228C16.7588 16.4997 17.3561 15.9023 17.3561 15.1663ZM17.3561 11.833C17.3561 11.097 16.7588 10.4997 16.0228 10.4997H14.6895C13.9535 10.4997 13.3561 11.097 13.3561 11.833C13.3561 12.569 13.9535 13.1663 14.6895 13.1663H16.0228C16.7588 13.1663 17.3561 12.569 17.3561 11.833ZM17.3561 8.49967C17.3561 7.76367 16.7588 7.16634 16.0228 7.16634H14.6895C13.9535 7.16634 13.3561 7.76367 13.3561 8.49967C13.3561 9.23567 13.9535 9.83301 14.6895 9.83301H16.0228C16.7588 9.83301 17.3561 9.23567 17.3561 8.49967ZM22.0228 21.833C22.0228 21.097 21.4255 20.4997 20.6895 20.4997H19.3561C18.6201 20.4997 18.0228 21.097 18.0228 21.833C18.0228 22.569 18.6201 23.1663 19.3561 23.1663H20.6895C21.4255 23.1663 22.0228 22.569 22.0228 21.833ZM22.0228 18.4997C22.0228 17.7637 21.4255 17.1663 20.6895 17.1663H19.3561C18.6201 17.1663 18.0228 17.7637 18.0228 18.4997C18.0228 19.2357 18.6201 19.833 19.3561 19.833H20.6895C21.4255 19.833 22.0228 19.2357 22.0228 18.4997ZM22.0228 15.1663C22.0228 14.4303 21.4255 13.833 20.6895 13.833H19.3561C18.6201 13.833 18.0228 14.4303 18.0228 15.1663C18.0228 15.9023 18.6201 16.4997 19.3561 16.4997H20.6895C21.4255 16.4997 22.0228 15.9023 22.0228 15.1663ZM22.0228 11.833C22.0228 11.097 21.4255 10.4997 20.6895 10.4997H19.3561C18.6201 10.4997 18.0228 11.097 18.0228 11.833C18.0228 12.569 18.6201 13.1663 19.3561 13.1663H20.6895C21.4255 13.1663 22.0228 12.569 22.0228 11.833ZM21.3561 8.49967C21.3561 7.76367 20.7588 7.16634 20.0228 7.16634H19.3561C18.6201 7.16634 18.0228 7.76367 18.0228 8.49967C18.0228 9.23567 18.6201 9.83301 19.3561 9.83301H20.0228C20.7588 9.83301 21.3561 9.23567 21.3561 8.49967ZM10.6895 5.16634C10.6895 5.90234 11.2868 6.49967 12.0228 6.49967C12.7588 6.49967 13.3561 5.90234 13.3561 5.16634C13.3561 4.43034 12.7588 3.83301 12.0228 3.83301C11.2868 3.83301 10.6895 4.43034 10.6895 5.16634ZM14.0228 5.16634C14.0228 5.90234 14.6201 6.49967 15.3561 6.49967C16.0921 6.49967 16.6895 5.90234 16.6895 5.16634C16.6895 4.43034 16.0921 3.83301 15.3561 3.83301C14.6201 3.83301 14.0228 4.43034 14.0228 5.16634ZM17.3561 5.16634C17.3561 5.90234 17.9535 6.49967 18.6895 6.49967C19.4255 6.49967 20.0228 5.90234 20.0228 5.16634C20.0228 4.43034 19.4255 3.83301 18.6895 3.83301C17.9535 3.83301 17.3561 4.43034 17.3561 5.16634ZM9.35612 8.49967C9.35612 9.23567 9.95345 9.83301 10.6895 9.83301H11.3561C12.0921 9.83301 12.6895 9.23567 12.6895 8.49967C12.6895 7.76367 12.0921 7.16634 11.3561 7.16634H10.6895C9.95345 7.16634 9.35612 7.76367 9.35612 8.49967ZM8.68945 11.833C8.68945 12.569 9.28679 13.1663 10.0228 13.1663H11.3561C12.0921 13.1663 12.6895 12.569 12.6895 11.833C12.6895 11.097 12.0921 10.4997 11.3561 10.4997H10.0228C9.28679 10.4997 8.68945 11.097 8.68945 11.833ZM8.68945 15.1663C8.68945 15.9023 9.28679 16.4997 10.0228 16.4997H11.3561C12.0921 16.4997 12.6895 15.9023 12.6895 15.1663C12.6895 14.4303 12.0921 13.833 11.3561 13.833H10.0228C9.28679 13.833 8.68945 14.4303 8.68945 15.1663ZM8.68945 18.4997C8.68945 19.2357 9.28679 19.833 10.0228 19.833H11.3561C12.0921 19.833 12.6895 19.2357 12.6895 18.4997C12.6895 17.7637 12.0921 17.1663 11.3561 17.1663H10.0228C9.28679 17.1663 8.68945 17.7637 8.68945 18.4997Z" fill="#FFC107"/>
<path d="M28.0221 22.97C19.9941 14.9707 16.0221 26.5 16.0221 26.5C16.0221 26.5 13.1948 18.9233 5.35547 14.5C10.5501 19.488 5.45014 30.5 15.7441 30.5C25.1888 30.5 19.0501 19.3 28.0221 22.97Z" fill="#4CAF50"/>
<path d="M28.0221 22.97C19.9941 14.9707 16.0221 30.5 16.0221 30.5C16.0221 30.5 9.35547 16.5 5.35547 14.5C10.5501 19.488 10.0221 30.5 15.7441 30.5C22.0221 30.5 19.3555 17.8333 28.0221 22.97Z" fill="#388E3C"/>
</svg>
