<svg width="33" height="33" viewBox="0 0 33 33" fill="none" xmlns="http://www.w3.org/2000/svg">
<path d="M18.0228 29.1667H15.3561C15.3561 27.8333 14.6895 26.5 14.6895 26.5H18.6895C18.6895 26.5 18.0228 27.8333 18.0228 29.1667Z" fill="#827717"/>
<path d="M16.6895 3.83301C14.5677 3.83301 12.5329 4.67586 11.0326 6.17615C9.53231 7.67645 8.68945 9.71128 8.68945 11.833C8.68945 13.9547 9.53231 15.9896 11.0326 17.4899C12.5329 18.9902 14.5677 19.833 16.6895 19.833C18.8112 19.833 20.846 18.9902 22.3463 17.4899C23.8466 15.9896 24.6895 13.9547 24.6895 11.833C24.6895 9.71128 23.8466 7.67645 22.3463 6.17615C20.846 4.67586 18.8112 3.83301 16.6895 3.83301Z" fill="#D1D1D1"/>
<path d="M8.35677 11.167C6.67707 11.167 5.06616 11.8343 3.87843 13.022C2.6907 14.2097 2.02344 15.8206 2.02344 17.5003C2.02344 19.18 2.6907 20.7909 3.87843 21.9787C5.06616 23.1664 6.67707 23.8337 8.35677 23.8337C10.0365 23.8337 11.6474 23.1664 12.8351 21.9787C14.0228 20.7909 14.6901 19.18 14.6901 17.5003C14.6901 15.8206 14.0228 14.2097 12.8351 13.022C11.6474 11.8343 10.0365 11.167 8.35677 11.167ZM25.0234 11.167C23.3437 11.167 21.7328 11.8343 20.5451 13.022C19.3574 14.2097 18.6901 15.8206 18.6901 17.5003C18.6901 19.18 19.3574 20.7909 20.5451 21.9787C21.7328 23.1664 23.3437 23.8337 25.0234 23.8337C26.7031 23.8337 28.314 23.1664 29.5018 21.9787C30.6895 20.7909 31.3568 19.18 31.3568 17.5003C31.3568 15.8206 30.6895 14.2097 29.5018 13.022C28.314 11.8343 26.7031 11.167 25.0234 11.167Z" fill="#E0E0E0"/>
<path d="M16.6895 9.83301C14.5677 9.83301 12.5329 10.6759 11.0326 12.1762C9.53231 13.6764 8.68945 15.7113 8.68945 17.833C8.68945 19.9547 9.53231 21.9896 11.0326 23.4899C12.5329 24.9902 14.5677 25.833 16.6895 25.833C18.8112 25.833 20.846 24.9902 22.3463 23.4899C23.8466 21.9896 24.6895 19.9547 24.6895 17.833C24.6895 15.7113 23.8466 13.6764 22.3463 12.1762C20.846 10.6759 18.8112 9.83301 16.6895 9.83301Z" fill="#EEEEEE"/>
<path d="M5.35547 24.5C5.35547 24.5 7.12347 24.384 8.6888 25.1667C10.0221 25.8333 11.3555 26.5 14.0221 26.5C16.0221 26.5 16.6888 26.5 16.6888 26.5C16.6888 26.5 14.0221 22.5 10.0221 22.5C6.6888 22.5 5.35547 24.5 5.35547 24.5ZM28.0221 24.5C28.0221 24.5 26.2541 24.384 24.6888 25.1667C23.3555 25.8333 22.0221 26.5 19.3555 26.5C17.3555 26.5 16.6888 26.5 16.6888 26.5C16.6888 26.5 19.3555 22.5 23.3555 22.5C26.6888 22.5 28.0221 24.5 28.0221 24.5Z" fill="#9E9D24"/>
<path d="M18.6901 23.1667C17.3568 25.1667 16.6901 25.1667 16.6901 25.1667C16.6901 25.1667 16.0234 25.1667 14.6901 23.1667C13.3568 21.1667 11.3568 18.5 8.02344 18.5C8.02344 18.5 8.78077 19.438 9.35677 21.1667C10.0234 23.1667 11.3568 26.5 14.6901 26.5C15.3568 26.5 18.0234 26.5 18.6901 26.5C22.0234 26.5 23.3568 23.1667 24.0234 21.1667C24.5994 19.438 25.3568 18.5 25.3568 18.5C22.0234 18.5 20.0234 21.1667 18.6901 23.1667Z" fill="#AFB42B"/>
</svg>
