<svg width="33" height="33" viewBox="0 0 33 33" fill="none" xmlns="http://www.w3.org/2000/svg">
<path d="M27.8988 3.83301C26.5075 6.64101 20.8615 6.55301 19.2221 9.90367C18.8881 10.5857 18.6575 11.3003 18.5348 12.0123C18.5235 12.063 18.5121 12.1083 18.5021 12.1677C18.2288 13.8583 16.9921 14.1443 16.9921 14.1443L16.9968 14.149C15.9961 14.479 15.0295 15.075 14.2068 15.905C13.5981 16.5183 13.1281 17.197 12.7901 17.8983C12.7855 17.9057 12.7815 17.9097 12.7768 17.9163C12.1441 18.887 11.2075 19.1857 10.5901 19.2737C10.3848 19.2737 10.1788 19.285 9.9728 19.3037C9.96613 19.303 9.9588 19.3023 9.9588 19.3023L9.95814 19.3057C9.40414 19.3563 8.84947 19.4703 8.30213 19.6517C6.92214 20.1083 5.72547 20.9403 4.9348 21.993C4.5008 22.571 3.35547 23.8377 3.35547 23.8377C3.35547 23.8377 3.8928 25.3643 4.12947 26.0917C4.73614 27.959 6.6368 29.1663 8.97014 29.1663C9.73813 29.1663 10.5121 29.039 11.2721 28.7877C12.5675 28.359 13.6948 27.599 14.4828 26.637L14.4821 26.647C14.4821 26.647 14.4861 26.6383 14.4941 26.6243C14.5428 26.565 14.5941 26.5077 14.6401 26.4463C14.7481 26.303 14.8461 26.1563 14.9355 26.0083C15.3308 25.5577 16.0075 24.9937 17.0408 24.723C17.2601 24.6957 17.4788 24.653 17.6968 24.599C17.7115 24.597 17.7248 24.5937 17.7388 24.5923C17.7441 24.589 17.7468 24.5863 17.7515 24.583C18.8948 24.2897 20.0121 23.6423 20.9461 22.701C21.9168 21.723 22.5855 20.5223 22.8541 19.2977L22.8575 19.303C22.8575 19.303 23.1228 17.917 24.5181 17.4337C24.5221 17.429 24.5241 17.4257 24.5275 17.421C25.8175 16.8483 26.9788 15.733 27.7255 14.2443C29.6168 9.76901 28.1895 4.65234 27.8988 3.83301Z" fill="#388E3C"/>
<path d="M15.459 17.2685C14.7322 17.9952 14.2351 18.8921 14.077 19.7618C13.9188 20.6314 14.1126 21.4026 14.6157 21.9057C15.1188 22.4088 15.89 22.6025 16.7597 22.4444C17.6293 22.2862 18.5262 21.789 19.2529 21.0623C19.9797 20.3355 20.4768 19.4386 20.6349 18.569C20.7931 17.6993 20.5993 16.9281 20.0962 16.425C19.5931 15.922 18.8219 15.7282 17.9522 15.8864C17.0826 16.0445 16.1857 16.5417 15.459 17.2685Z" fill="#9CCC65"/>
<path d="M25.4594 8.70791C26.7967 9.37724 27.088 11.4692 26.11 13.3786C25.132 15.2899 23.2574 16.2952 21.9187 15.6259C20.5814 14.9566 20.2894 12.8639 21.2667 10.9546C22.2454 9.04258 24.1214 8.03724 25.4594 8.70791ZM13.2634 22.8832C13.7114 24.3792 12.474 26.1692 10.5 26.8772C8.5247 27.5859 6.56137 26.9479 6.11337 25.4492C5.6647 23.9539 6.9027 22.1639 8.8767 21.4559C10.8514 20.7466 12.8154 21.3859 13.2634 22.8832Z" fill="#9CCC65"/>
<path d="M8.64769 22.9676C8.3806 23.0902 8.1581 23.2811 8.02915 23.4983C7.90019 23.7155 7.87534 23.9413 7.96006 24.1259C8.04477 24.3106 8.23212 24.439 8.48089 24.4829C8.72965 24.5268 9.01946 24.4826 9.28655 24.3601C9.55364 24.2375 9.77613 24.0467 9.90509 23.8294C10.034 23.6122 10.0589 23.3865 9.97418 23.2018C9.88946 23.0172 9.70211 22.8888 9.45335 22.8448C9.20458 22.8009 8.91478 22.8451 8.64769 22.9676Z" fill="#F1F8E9"/>
<path d="M15.7423 18.9378C15.5408 19.1516 15.4062 19.4121 15.3683 19.6618C15.3303 19.9116 15.3921 20.1301 15.5399 20.2695C15.6878 20.4088 15.9096 20.4575 16.1567 20.4047C16.4037 20.352 16.6557 20.2023 16.8573 19.9884C17.0588 19.7745 17.1933 19.5141 17.2313 19.2643C17.2692 19.0146 17.2075 18.796 17.0597 18.6567C16.9118 18.5174 16.6899 18.4687 16.4429 18.5214C16.1958 18.5741 15.9438 18.7239 15.7423 18.9378Z" fill="#F1F8E9"/>
<path d="M21.8208 12.5159C21.7295 12.795 21.7187 13.0878 21.7908 13.3299C21.8629 13.572 22.012 13.7435 22.2052 13.8067C22.3985 13.8699 22.6201 13.8197 22.8213 13.667C23.0225 13.5143 23.1869 13.2718 23.2782 12.9926C23.3695 12.7135 23.3803 12.4207 23.3082 12.1786C23.2361 11.9365 23.087 11.765 22.8938 11.7018C22.7005 11.6386 22.4789 11.6889 22.2777 11.8415C22.0765 11.9942 21.9122 12.2368 21.8208 12.5159Z" fill="#F1F8E9"/>
</svg>
