<svg width="32" height="32" viewBox="0 0 32 32" fill="none" xmlns="http://www.w3.org/2000/svg">
<path d="M14.6409 18.6997C14.6409 18.6997 14.6629 22.477 14.6669 23.8183C14.6669 24.8483 12.7655 28.6723 9.70088 30.0003C6.14355 28.6497 4.69688 24.849 4.69688 23.8183C4.69355 22.4803 4.68555 18.667 4.68555 18.667L14.6409 18.6997Z" fill="#546E7A"/>
<path d="M8.66699 3.06641L8.69233 17.9677C8.69366 18.5911 8.70366 23.8791 9.69699 23.8797C10.6903 23.8811 10.6923 18.5997 10.6923 17.9771L10.665 3.07707L8.66699 3.06641Z" fill="#FFC107"/>
<path d="M7.66699 2H11.667C12.219 2 12.667 2.448 12.667 3C12.667 3.552 12.219 4 11.667 4H7.66699C7.11499 4 6.66699 3.552 6.66699 3C6.66699 2.448 7.11499 2 7.66699 2Z" fill="#546E7A"/>
<path d="M21.333 29.9996L23.3237 29.9969L23.333 12.4482L21.3423 12.4502L21.333 29.9996Z" fill="#FFC107"/>
<path d="M23.3276 15.072L21.3369 15.0733L21.3389 12.0013L23.3289 12L23.3276 15.072Z" fill="#546E7A"/>
<path d="M24.558 11.9814L26.746 9.79406L26.7467 8.70073C26.746 8.24939 25.638 1.59473 25.638 1.59473C25.638 1.59473 24.56 8.26206 24.56 8.69539L24.558 11.9814ZM18 9.80006L20.1847 11.9841L20.1873 8.70539C20.186 8.25339 19.0787 1.59939 19.0787 1.59939C19.0787 1.59939 18.0007 8.26673 18.0007 8.70006L18 9.80006Z" fill="#B0BEC5"/>
<path d="M24.561 9.24902C24.5603 9.55036 24.3156 9.79569 24.0136 9.79636C23.711 9.79569 23.467 9.55102 23.467 9.24969L21.281 9.25102C21.2803 9.55302 21.0356 9.79769 20.7343 9.79769C20.4323 9.79836 20.1876 9.55369 20.1876 9.25102L18.001 9.80036C18.0003 11.0077 18.9783 11.9857 20.185 11.9844L24.5583 11.9817C25.7656 11.981 26.7456 11.001 26.7463 9.79369L24.561 9.24902Z" fill="#B0BEC5"/>
<path d="M21.2783 11.9897L23.4643 11.9883L23.4663 8.70299C23.4663 8.25232 22.3583 1.59766 22.3583 1.59766C22.3583 1.59766 21.2797 8.26432 21.2797 8.69832L21.2783 11.9897Z" fill="#B0BEC5"/>
</svg>
