<svg width="32" height="32" viewBox="0 0 32 32" fill="none" xmlns="http://www.w3.org/2000/svg">
<path d="M5.6075 11.861C5.32483 11.879 5.0815 11.6637 5.0635 11.381C5.06217 11.3597 5.06217 11.3384 5.0635 11.317C5.0635 7.67436 7.56483 7.02169 7.6735 6.96702C7.95883 6.89169 8.25083 7.06236 8.32617 7.34769C8.4015 7.63302 8.23083 7.92502 7.9455 8.00036C7.89083 8.00036 6.1515 8.54436 6.1515 11.2624C6.1515 11.2624 5.9855 11.8184 5.6955 11.8564C5.66617 11.861 5.6375 11.8624 5.6075 11.861Z" fill="#8BC34A"/>
<path d="M7.00706 5.85569C7.96239 5.15369 9.74706 5.50236 10.1671 5.60703C9.60239 6.07036 9.90172 8.11836 8.82839 8.67036C8.07106 9.04236 7.38172 8.81036 7.17772 7.72569C6.31306 7.36503 6.32972 6.36036 7.00706 5.85569Z" fill="#8BC34A"/>
<path d="M5.51531 11.3137C5.26531 11.3137 5.06198 11.111 5.06198 10.8604C5.06198 7.97504 3.73798 7.02704 3.68131 6.98771C3.47664 6.84571 3.42264 6.56571 3.56131 6.35971C3.70064 6.15371 3.97731 6.09704 4.18464 6.23371C4.25731 6.28171 5.96797 7.45104 5.96797 10.8604C5.96797 11.111 5.76531 11.3137 5.51531 11.3137Z" fill="#8BC34A"/>
<path d="M5.03033 5.58146C4.11966 4.74546 2.12566 4.84546 1.66699 4.85746C2.18566 5.39546 1.66566 7.18812 2.70433 7.88612C3.43299 8.38746 4.20833 8.27012 4.56499 7.28946C5.15566 7.20812 5.53099 6.70212 5.40299 6.15946C5.35166 5.93812 5.22033 5.73479 5.03033 5.58146Z" fill="#8BC34A"/>
<path d="M2.70433 7.88511C1.66566 7.18711 2.18566 5.39511 1.66699 4.85645C2.19966 5.06978 3.08899 5.69645 4.57233 7.26511C4.20899 8.26845 3.44033 8.36378 2.70433 7.88511Z" fill="#689F38"/>
<path d="M15.6075 11.8464C15.3248 11.8644 15.0815 11.649 15.0635 11.3664C15.0622 11.345 15.0622 11.3237 15.0635 11.3024C15.0635 7.65971 17.5648 7.00704 17.6735 6.95238C17.9588 6.87704 18.2508 7.04771 18.3262 7.33304C18.4015 7.61838 18.2308 7.91038 17.9455 7.98571C17.8908 7.98571 16.1515 8.52971 16.1515 11.2477C16.1515 11.2477 15.9855 11.8037 15.6955 11.8417C15.6662 11.8464 15.6375 11.8477 15.6075 11.8464Z" fill="#8BC34A"/>
<path d="M17.0071 5.84202C17.9624 5.14002 19.7471 5.48869 20.1671 5.59336C19.6024 6.05669 19.9017 8.10469 18.8284 8.65669C18.0711 9.02869 17.3817 8.79669 17.1777 7.71202C16.3131 7.35069 16.3297 6.34669 17.0071 5.84202Z" fill="#8BC34A"/>
<path d="M15.5153 11.2991C15.2653 11.2991 15.062 11.0964 15.062 10.8457C15.062 7.96039 13.738 7.01239 13.6813 6.97306C13.4766 6.83106 13.4226 6.55106 13.5613 6.34506C13.7006 6.13906 13.9773 6.08239 14.1846 6.21906C14.2573 6.26706 15.968 7.43639 15.968 10.8457C15.968 11.0971 15.7653 11.2991 15.5153 11.2991Z" fill="#8BC34A"/>
<path d="M15.0303 5.56779C14.1197 4.73179 12.1263 4.83179 11.667 4.84379C12.1857 5.38179 11.6657 7.17445 12.7043 7.87245C13.433 8.37379 14.2083 8.25645 14.565 7.27579C15.1557 7.19445 15.531 6.68845 15.403 6.14579C15.3517 5.92379 15.2203 5.72045 15.0303 5.56779Z" fill="#8BC34A"/>
<path d="M12.7043 7.87144C11.6657 7.17344 12.1857 5.38144 11.667 4.84277C12.1997 5.05611 13.089 5.68277 14.5723 7.25144C14.209 8.25477 13.4403 8.34944 12.7043 7.87144Z" fill="#689F38"/>
<path d="M25.4405 11.861C25.1578 11.879 24.9145 11.6637 24.8965 11.381C24.8952 11.3597 24.8952 11.3384 24.8965 11.317C24.8965 7.67436 27.3978 7.02169 27.5065 6.96702C27.7918 6.89169 28.0838 7.06236 28.1592 7.34769C28.2345 7.63302 28.0638 7.92502 27.7785 8.00036C27.7238 8.00036 25.9845 8.54436 25.9845 11.2624C25.9845 11.2624 25.8185 11.8184 25.5285 11.8564C25.4992 11.861 25.4705 11.8624 25.4405 11.861Z" fill="#8BC34A"/>
<path d="M26.8401 5.85569C27.7954 5.15369 29.5801 5.50236 30.0001 5.60703C29.4354 6.07036 29.7347 8.11836 28.6614 8.67036C27.9041 9.04236 27.2147 8.81036 27.0107 7.72569C26.1461 7.36503 26.1627 6.36036 26.8401 5.85569Z" fill="#8BC34A"/>
<path d="M25.3483 11.3137C25.0983 11.3137 24.895 11.111 24.895 10.8604C24.895 7.97504 23.571 7.02704 23.5143 6.98771C23.3096 6.84571 23.2556 6.56571 23.3943 6.35971C23.5336 6.15371 23.8103 6.09704 24.0177 6.23371C24.0903 6.28171 25.801 7.45104 25.801 10.8604C25.801 11.111 25.5983 11.3137 25.3483 11.3137Z" fill="#8BC34A"/>
<path d="M24.8633 5.58146C23.9527 4.74546 21.9593 4.84546 21.5 4.85746C22.0187 5.39546 21.4987 7.18812 22.5373 7.88612C23.266 8.38746 24.0413 8.27012 24.398 7.28946C24.9887 7.20812 25.364 6.70212 25.236 6.15946C25.1847 5.93812 25.0533 5.73479 24.8633 5.58146Z" fill="#8BC34A"/>
<path d="M22.5373 7.88511C21.4987 7.18711 22.0187 5.39511 21.5 4.85645C22.0327 5.06978 22.922 5.69645 24.4053 7.26511C24.042 8.26845 23.2733 8.36378 22.5373 7.88511Z" fill="#689F38"/>
<path d="M29.3337 10.667H2.66699V13.3337H29.3337V10.667Z" fill="#795548"/>
<path d="M5.69051 25.028C5.40784 25.046 5.16451 24.8307 5.14651 24.548C5.14517 24.5267 5.14517 24.5053 5.14651 24.484C5.14651 20.8413 7.64784 20.1887 7.75651 20.134C8.04184 20.0587 8.33384 20.2293 8.40917 20.5147C8.48451 20.8 8.31384 21.092 8.02851 21.1673C7.97384 21.1673 6.23451 21.7113 6.23451 24.4293C6.23451 24.4293 6.06851 24.9853 5.77851 25.0233C5.74917 25.028 5.72051 25.0293 5.69051 25.028Z" fill="#8BC34A"/>
<path d="M7.09007 19.0227C8.0454 18.3207 9.83007 18.6694 10.2501 18.774C9.6854 19.2374 9.98473 21.2854 8.9114 21.8374C8.15406 22.2094 7.46473 21.9774 7.26073 20.8927C6.39606 20.532 6.41273 19.5274 7.09007 19.0227Z" fill="#8BC34A"/>
<path d="M5.59832 24.4807C5.34832 24.4807 5.14498 24.278 5.14498 24.0274C5.14498 21.142 3.82098 20.194 3.76432 20.1547C3.55965 20.0127 3.50565 19.7327 3.64432 19.5267C3.78365 19.3207 4.06032 19.264 4.26765 19.4007C4.34032 19.4487 6.05098 20.618 6.05098 24.0274C6.05098 24.278 5.84832 24.4807 5.59832 24.4807Z" fill="#8BC34A"/>
<path d="M5.11333 18.7484C4.20267 17.9125 2.20933 18.0124 1.75 18.0244C2.26867 18.5624 1.74867 20.3551 2.78733 21.0531C3.516 21.5545 4.29133 21.4371 4.648 20.4564C5.23867 20.3751 5.614 19.8691 5.486 19.3265C5.43467 19.1051 5.30333 18.9018 5.11333 18.7484Z" fill="#8BC34A"/>
<path d="M2.78733 21.0521C1.74867 20.3541 2.26867 18.5621 1.75 18.0234C2.28267 18.2368 3.172 18.8634 4.65533 20.4321C4.292 21.4354 3.52333 21.5308 2.78733 21.0521Z" fill="#689F38"/>
<path d="M15.6905 25.0134C15.4078 25.0314 15.1645 24.816 15.1465 24.5334C15.1452 24.512 15.1452 24.4907 15.1465 24.4694C15.1465 20.8267 17.6478 20.174 17.7565 20.1194C18.0418 20.044 18.3338 20.2147 18.4092 20.5C18.4845 20.7854 18.3138 21.0774 18.0285 21.1527C17.9738 21.1527 16.2345 21.6967 16.2345 24.4147C16.2345 24.4147 16.0685 24.9707 15.7785 25.0087C15.7492 25.0134 15.7205 25.0147 15.6905 25.0134Z" fill="#8BC34A"/>
<path d="M17.0901 19.008C18.0454 18.306 19.8301 18.6547 20.2501 18.7594C19.6854 19.2227 19.9847 21.2707 18.9114 21.8227C18.1541 22.1947 17.4647 21.9627 17.2607 20.878C16.3961 20.5167 16.4127 19.5127 17.0901 19.008Z" fill="#8BC34A"/>
<path d="M15.5983 24.4661C15.3483 24.4661 15.145 24.2634 15.145 24.0127C15.145 21.1274 13.821 20.1794 13.7643 20.14C13.5596 19.998 13.5056 19.7181 13.6443 19.5121C13.7836 19.3061 14.0603 19.2494 14.2677 19.3861C14.3403 19.4341 16.051 20.6034 16.051 24.0127C16.051 24.2641 15.8483 24.4661 15.5983 24.4661Z" fill="#8BC34A"/>
<path d="M15.1133 18.7338C14.2027 17.8978 12.2093 17.9978 11.75 18.0098C12.2687 18.5478 11.7487 20.3405 12.7873 21.0385C13.516 21.5398 14.2913 21.4225 14.648 20.4418C15.2387 20.3605 15.614 19.8545 15.486 19.3118C15.4347 19.0898 15.3033 18.8865 15.1133 18.7338Z" fill="#8BC34A"/>
<path d="M12.7873 21.0375C11.7487 20.3395 12.2687 18.5475 11.75 18.0088C12.2827 18.2221 13.172 18.8488 14.6553 20.4175C14.292 21.4208 13.5233 21.5155 12.7873 21.0375Z" fill="#689F38"/>
<path d="M25.5235 25.028C25.2408 25.046 24.9975 24.8307 24.9795 24.548C24.9782 24.5267 24.9782 24.5053 24.9795 24.484C24.9795 20.8413 27.4808 20.1887 27.5895 20.134C27.8748 20.0587 28.1668 20.2293 28.2422 20.5147C28.3175 20.8 28.1468 21.092 27.8615 21.1673C27.8068 21.1673 26.0675 21.7113 26.0675 24.4293C26.0675 24.4293 25.9015 24.9853 25.6115 25.0233C25.5822 25.028 25.5535 25.0293 25.5235 25.028Z" fill="#8BC34A"/>
<path d="M26.9231 19.0227C27.8784 18.3207 29.6631 18.6694 30.0831 18.774C29.5184 19.2374 29.8177 21.2854 28.7444 21.8374C27.9871 22.2094 27.2977 21.9774 27.0937 20.8927C26.2291 20.532 26.2457 19.5274 26.9231 19.0227Z" fill="#8BC34A"/>
<path d="M25.4313 24.4807C25.1813 24.4807 24.978 24.278 24.978 24.0274C24.978 21.142 23.654 20.194 23.5973 20.1547C23.3927 20.0127 23.3387 19.7327 23.4773 19.5267C23.6167 19.3207 23.8933 19.264 24.1007 19.4007C24.1733 19.4487 25.884 20.618 25.884 24.0274C25.884 24.278 25.6813 24.4807 25.4313 24.4807Z" fill="#8BC34A"/>
<path d="M24.9463 18.7484C24.0357 17.9125 22.0423 18.0124 21.583 18.0244C22.1017 18.5624 21.5817 20.3551 22.6203 21.0531C23.349 21.5545 24.1243 21.4371 24.481 20.4564C25.0717 20.3751 25.447 19.8691 25.319 19.3265C25.2677 19.1051 25.1363 18.9018 24.9463 18.7484Z" fill="#8BC34A"/>
<path d="M22.6203 21.0521C21.5817 20.3541 22.1017 18.5621 21.583 18.0234C22.1157 18.2368 23.005 18.8634 24.4883 20.4321C24.125 21.4354 23.3563 21.5308 22.6203 21.0521Z" fill="#689F38"/>
<path d="M29.4167 23.959H2.75V26.6257H29.4167V23.959Z" fill="#795548"/>
</svg>
