<svg width="32" height="33" viewBox="0 0 32 33" fill="none" xmlns="http://www.w3.org/2000/svg">
<path d="M28.4009 13.4558L28.3342 13.3891C28.0009 12.9891 28.4676 13.3225 28.6009 13.1225C28.7342 12.9225 28.2676 12.5225 28.1342 12.3891C27.8676 12.1891 27.6009 12.0558 27.2676 11.9891C27.4009 11.9891 27.6676 11.9891 27.6676 11.8558C27.6676 11.7225 27.2676 11.5225 27.1342 11.4558C26.8676 11.3225 26.6009 11.1891 26.3342 11.0558C26.0676 10.9891 25.8676 10.9891 25.6009 10.9891C25.6676 10.9225 25.8009 10.9225 25.8676 10.7891C25.6009 10.3891 24.4009 10.5891 24.0676 10.8558C24.2009 10.7225 24.2676 10.5225 24.0009 10.5225C23.8009 10.5225 23.6009 10.5891 23.4009 10.6558C20.6009 11.5225 18.7342 13.4558 18.1342 14.1225C17.5342 14.7891 17.2676 15.3891 17.2676 15.3891C18.0676 14.5891 19.0676 13.8558 20.1342 13.3225C20.8009 12.9891 22.0009 12.5225 22.7342 12.9891C22.9342 13.1225 23.0676 13.2558 23.2676 13.2558C23.2676 13.1891 23.3342 13.1225 23.3342 13.0558C23.5342 13.2558 23.3342 13.5891 23.5342 13.8558C23.8009 14.1891 24.0009 14.0558 24.2676 13.8558C24.2009 14.1225 24.2676 14.5225 24.4676 14.7891C24.6676 15.0558 25.0009 15.0558 25.0676 14.7225C25.1342 15.0558 25.5342 16.2558 26.0676 15.7225C26.4009 15.3891 26.6009 14.6558 26.4009 14.2558C26.6009 14.5225 26.8009 14.9891 27.0676 15.1891C27.3342 15.3891 27.6009 15.3891 27.9342 15.2558C28.3342 14.9891 28.3342 14.5891 28.3342 14.1891C28.3342 13.9225 28.4009 14.1225 28.5342 14.0558C28.8009 13.9225 28.5342 13.5891 28.4009 13.4558Z" fill="#388E3C"/>
<path d="M19.3994 4.45544C19.4661 4.52211 19.4661 4.45544 19.3994 4.45544C19.8661 4.85544 19.5328 4.38878 19.7328 4.25544C19.9328 4.12211 20.3328 4.58878 20.4661 4.72211C20.6661 4.98878 20.7994 5.25544 20.8661 5.58878C20.8661 5.45544 20.8661 5.18878 20.9994 5.18878C21.1328 5.18878 21.3328 5.58878 21.3994 5.72211C21.5328 5.98878 21.6661 6.25544 21.7994 6.52211C21.8661 6.78878 21.8661 6.98878 21.8661 7.25544C21.9328 7.18878 21.9328 7.05544 22.0661 6.98878C22.4661 7.25544 22.2661 8.45544 21.9994 8.78878C22.1328 8.65544 22.3328 8.58878 22.3328 8.85544C22.3328 9.05544 22.2661 9.25544 22.1994 9.45544C21.3328 12.2554 19.3994 14.1221 18.7328 14.7221C18.0661 15.3221 17.4661 15.5888 17.4661 15.5888C18.2661 14.7888 18.9994 13.7888 19.5328 12.7221C19.8661 12.0554 20.3328 10.8554 19.8661 10.1221C19.7328 9.92211 19.5994 9.78878 19.5994 9.58878C19.6661 9.58878 19.7328 9.52211 19.7994 9.52211C19.5994 9.32211 19.2661 9.52211 18.9994 9.32211C18.6661 9.05544 18.7994 8.85544 18.9994 8.58878C18.7328 8.65544 18.3328 8.58878 18.0661 8.38878C17.7994 8.18878 17.7994 7.85544 18.1328 7.78878C17.7994 7.72211 16.5994 7.32211 17.1328 6.78878C17.4661 6.45544 18.1994 6.25544 18.5994 6.45544C18.3994 6.25544 17.8661 6.05544 17.6661 5.78878C17.4661 5.52211 17.4661 5.25544 17.5994 4.92211C17.8661 4.52211 18.2661 4.52211 18.6661 4.52211C18.9328 4.52211 18.7328 4.45544 18.7994 4.32211C18.9328 4.05544 19.2661 4.32211 19.3994 4.45544Z" fill="#388E3C"/>
<path d="M27.7342 5.12191C27.2008 4.58858 26.6675 4.92191 26.2008 5.38858C26.3342 5.18858 26.2008 4.98858 25.9342 4.92191C25.7342 4.85524 25.5342 4.98858 25.4008 5.12191C25.1342 5.38858 25.1342 5.85524 25.1342 6.18858C24.9342 5.72191 24.4008 5.92191 24.2008 6.32191C24.0675 6.65524 24.0675 7.05524 24.0675 7.38858C23.8675 7.18858 23.6008 7.18858 23.3342 7.45524C22.6675 8.18858 22.6008 10.1886 19.2675 13.3886C19.2008 13.4552 19.4008 13.5886 19.4008 13.5886C23.4675 9.65524 24.6008 10.2552 25.4675 9.58858C25.6675 9.38858 25.4675 9.25524 25.2675 9.18858C25.5342 9.18858 25.8008 9.12191 26.0008 9.12191C26.3342 9.05524 26.6675 8.98858 26.9342 8.78858C27.0675 8.65524 27.2008 8.38858 27.1342 8.18858C27.0008 7.98858 26.8008 7.98858 26.6008 7.98858C27.0008 7.92191 27.4675 7.85524 27.8008 7.58858C28.0008 7.25524 28.0675 7.05524 28.0675 6.85524C28.0675 6.72191 27.9342 6.38858 27.7342 6.45524C28.0675 6.12191 28.0675 5.45524 27.7342 5.12191Z" fill="#4CAF50"/>
<path d="M20.6668 18.9222C22.0002 17.5888 21.9335 15.2555 19.7335 13.1222C17.6002 10.9222 15.3335 10.8555 14.0002 12.1888C11.1335 15.3222 3.93351 27.3888 4.73351 28.1222C5.40018 28.7888 16.4668 22.4555 20.6668 18.9222Z" fill="#FF9800"/>
<path d="M13.2658 19.7889C13.3991 19.9223 13.5324 19.9889 13.7324 19.9889C13.9324 19.9889 14.0658 19.9223 14.1991 19.7889C14.4658 19.5223 14.4658 19.1223 14.1991 18.8556L11.1991 15.8556C10.9324 16.2556 10.6658 16.5889 10.4658 16.9889L13.2658 19.7889ZM12.9991 13.3889L14.2658 14.6556C14.3991 14.7889 14.5991 14.8556 14.7324 14.8556C14.9324 14.8556 15.0658 14.7889 15.1991 14.6556C15.4658 14.3889 15.4658 13.9889 15.1991 13.7223L13.7991 12.3223C13.5991 12.6556 13.3324 12.9889 12.9991 13.3889ZM6.26575 25.4556C6.39909 25.5889 6.59909 25.6556 6.73242 25.6556C6.93242 25.6556 7.06575 25.5889 7.19909 25.4556C7.46575 25.1889 7.46575 24.7889 7.19909 24.5223L6.39909 23.7223C6.13242 24.1889 5.93242 24.5889 5.73242 24.9889L6.26575 25.4556ZM17.9324 17.7223C17.6658 17.4556 17.2658 17.4556 16.9991 17.7223C16.7324 17.9889 16.7324 18.3889 16.9991 18.6556L18.7324 20.3889C19.1324 20.1223 19.4658 19.8556 19.7991 19.5889L17.9324 17.7223ZM11.3324 24.1889C11.1324 24.1889 10.9991 24.1223 10.8658 23.9889L8.79909 21.9223C8.53242 21.6556 8.53242 21.2556 8.79909 20.9889C9.06575 20.7223 9.46575 20.7223 9.73242 20.9889L11.7991 23.0556C12.0658 23.3223 12.0658 23.7223 11.7991 23.9889C11.6658 24.1223 11.5324 24.1889 11.3324 24.1889Z" fill="#EF6C00"/>
</svg>
