<svg width="33" height="32" viewBox="0 0 33 32" fill="none" xmlns="http://www.w3.org/2000/svg">
<path d="M13.89 28.6663C13.4234 28.6663 12.9567 28.6663 12.49 28.5996C9.42335 28.2663 6.89002 26.7996 5.49002 24.4663C2.09002 18.933 5.55669 15.7996 8.89002 12.8663C9.75669 12.0663 10.69 11.2663 11.49 10.3996C11.7567 10.133 12.0234 9.79964 12.29 9.53297C15.89 5.53297 19.89 0.999637 25.49 4.8663C27.7567 6.4663 29.09 8.8663 29.4233 11.8663C29.8233 15.9996 28.09 20.733 24.9567 23.9996C21.89 26.933 17.8234 28.6663 13.89 28.6663Z" fill="#8D6E63"/>
<path d="M13.8898 28.6665C13.4232 28.6665 12.9565 28.6665 12.4898 28.5998C9.42318 28.2665 6.88984 26.7998 5.48984 24.4665C4.55651 22.9331 4.15651 21.6665 4.08984 20.4665C10.5565 26.3331 26.4898 21.9331 29.3565 11.7998C29.7565 15.9331 28.0232 20.6665 24.8898 23.9331C21.8898 26.9331 17.8232 28.6665 13.8898 28.6665Z" fill="#795548"/>
<path d="M15.6895 24.667C15.4242 24.667 15.1699 24.7723 14.9823 24.9599C14.7948 25.1474 14.6895 25.4018 14.6895 25.667C14.6895 25.9322 14.7948 26.1866 14.9823 26.3741C15.1699 26.5616 15.4242 26.667 15.6895 26.667C15.9547 26.667 16.209 26.5616 16.3966 26.3741C16.5841 26.1866 16.6895 25.9322 16.6895 25.667C16.6895 25.4018 16.5841 25.1474 16.3966 24.9599C16.209 24.7723 15.9547 24.667 15.6895 24.667Z" fill="#3E2723"/>
<path d="M23.3568 8.66699C23.7568 8.66699 24.0234 8.93366 24.0234 9.33366C24.0234 9.73366 23.7568 10.0003 23.3568 10.0003C22.9568 10.0003 22.6901 9.73366 22.6901 9.33366C22.6901 8.93366 22.9568 8.66699 23.3568 8.66699ZM23.3568 16.0003C23.3568 16.4003 23.6234 16.667 24.0234 16.667C24.4234 16.667 24.6901 16.4003 24.6901 16.0003C24.6901 15.6003 24.4234 15.3337 24.0234 15.3337C23.6234 15.3337 23.3568 15.6003 23.3568 16.0003ZM18.0234 11.3337C18.0234 11.7337 18.2901 12.0003 18.6901 12.0003C19.0901 12.0003 19.3568 11.7337 19.3568 11.3337C19.3568 10.9337 19.0901 10.667 18.6901 10.667C18.2901 10.667 18.0234 10.9337 18.0234 11.3337ZM10.0234 21.3337C10.0234 21.7337 10.2901 22.0003 10.6901 22.0003C11.0901 22.0003 11.3568 21.7337 11.3568 21.3337C11.3568 20.9337 11.0901 20.667 10.6901 20.667C10.2901 20.667 10.0234 20.9337 10.0234 21.3337ZM14.0234 19.0003C14.0234 19.5337 14.4901 20.0003 15.0234 20.0003C15.5568 20.0003 16.0234 19.5337 16.0234 19.0003C16.0234 18.467 15.5568 18.0003 15.0234 18.0003C14.4901 18.0003 14.0234 18.467 14.0234 19.0003Z" fill="#5D4037"/>
</svg>
