<svg width="33" height="33" viewBox="0 0 33 33" fill="none" xmlns="http://www.w3.org/2000/svg">
<path d="M23.8496 8.16211L24.7924 9.10493L5.62099 28.2757L4.6782 27.3329L23.8496 8.16211Z" fill="#D88A19"/>
<path d="M27.4012 8.8236C25.6632 10.5616 23.7005 9.90226 23.3752 9.68426C23.0472 9.35626 22.4978 7.39626 24.1272 5.65626C25.5392 4.24426 28.6972 4.25293 28.6972 4.25293C28.6972 4.25293 28.7052 7.41026 27.4012 8.8236ZM15.1992 19.4496C17.1578 19.3456 19.4465 20.1123 20.4292 20.7689C19.6685 22.0736 18.3645 23.0509 16.4045 23.3723C13.7932 23.8009 12.5898 21.9476 12.4798 21.5109C12.3705 21.0756 12.4758 19.6603 15.1992 19.4496ZM16.3905 17.6003C16.5005 18.0363 17.7032 19.7823 20.3152 19.3516C22.2745 19.0303 23.5792 17.9449 24.3385 16.6396C23.1378 15.7656 20.9598 15.2163 19.1085 15.5396C17.2572 15.8609 16.2812 17.1656 16.3905 17.6003ZM22.4752 11.6256C20.6258 12.2749 20.2745 13.1049 20.3865 13.4303C20.6918 14.3189 22.2652 15.5463 24.5518 15.0063C26.4018 14.5749 27.7038 12.6183 27.8112 11.3116C27.9185 11.2043 24.9772 10.7623 22.4752 11.6256Z" fill="#F9A825"/>
<path d="M11.3882 20.5282C10.9522 20.4188 9.20753 19.2162 9.52753 16.6035C9.8482 14.6448 10.8269 13.3402 12.1315 12.5808C12.7862 13.4542 13.5555 15.7428 13.4502 17.8115C13.2382 20.5342 11.8242 20.6382 11.3882 20.5282ZM17.4695 13.9015C17.7922 12.0508 17.2415 9.87149 16.3689 8.67149C15.0635 9.43015 14.0869 10.6262 13.6562 12.5848C13.2262 15.1975 14.9722 16.4002 15.4069 16.5095C15.8429 16.7282 17.1475 15.7522 17.4695 13.9015ZM21.9135 5.09082C20.6069 5.19682 18.6502 6.38949 18.1102 8.35015C17.4615 10.6335 18.7189 12.3195 19.3302 12.6528C19.6569 12.7622 20.7335 12.4935 21.4902 10.6442C22.3562 8.03215 21.9135 5.09082 21.9135 5.09082ZM11.1562 23.4908C13.1149 23.3868 15.4035 24.1535 16.3862 24.8102C15.6255 26.1148 14.3215 27.0921 12.3615 27.4135C9.7502 27.8421 8.54687 25.9888 8.43687 25.5522C8.32753 25.1175 8.43287 23.7022 11.1562 23.4908Z" fill="#F9A825"/>
<path d="M7.34687 24.5694C6.91087 24.4601 5.1662 23.2574 5.4862 20.6447C5.80687 18.6861 6.78554 17.3814 8.0902 16.6221C8.74487 17.4954 9.5142 19.7841 9.40887 21.8527C9.19754 24.5754 7.78354 24.6801 7.34687 24.5694Z" fill="#F9A825"/>
</svg>
