<svg width="33" height="33" viewBox="0 0 33 33" fill="none" xmlns="http://www.w3.org/2000/svg">
<path d="M9.34113 13.2881H3.33594V23.2881H9.34113V13.2881Z" fill="#6D6D6D"/>
<path d="M20.6845 9.28809L18.0155 10.6214H8.00684V25.9548H18.0155L20.6845 27.2881H30.6931V9.28809H20.6845Z" fill="#ADADAD"/>
<path d="M5.33842 11.9541H1.33496V24.6208H5.33842V11.9541Z" fill="#6D6D6D"/>
<path d="M26.0225 11.2881H20.6846V13.2881H26.0225V11.2881Z" fill="#D3D3D3"/>
<path d="M26.0225 15.2881H20.6846V17.2881H26.0225V15.2881Z" fill="#D3D3D3"/>
<path d="M26.0225 19.2881H20.6846V21.2881H26.0225V19.2881Z" fill="#D3D3D3"/>
<path d="M26.0225 23.2881H20.6846V25.2881H26.0225V23.2881Z" fill="#D3D3D3"/>
<path d="M5.33767 13.2881H3.33594V23.2881H5.33767V13.2881Z" fill="#D3D3D3"/>
<path d="M14.6792 6.62109H10.6758V27.9544H14.6792V6.62109Z" fill="#C0C0C0"/>
<path d="M16.0142 4.62109H9.3418V8.62109H16.0142V4.62109Z" fill="#C0C0C0"/>
<path d="M14.6792 6.62109H10.6758V8.62109H14.6792V6.62109Z" fill="#D3D3D3"/>
</svg>
