<svg width="32" height="33" viewBox="0 0 32 33" fill="none" xmlns="http://www.w3.org/2000/svg">
<path d="M29.3333 7.9541H21.3333C20.9647 7.9541 20.6667 8.27277 20.6667 8.66544V15.9541C20.6667 16.4828 20.6007 16.9821 20.4807 17.4514C19.2333 22.3194 12.5 22.2554 11.4727 17.3368C11.3813 16.9001 11.3333 16.4388 11.3333 15.9541V8.66544C11.3333 8.27277 11.0353 7.9541 10.6667 7.9541H2.66667C2.298 7.9541 2 8.27277 2 8.66544V25.9908C2 27.0748 2.87933 27.9541 3.96333 27.9541H28.036C29.1207 27.9541 30 27.0748 30 25.9908V8.66544C30 8.27277 29.702 7.9541 29.3333 7.9541Z" fill="#795548"/>
<path d="M27.3337 13.9544C27.7018 13.9544 28.0003 13.656 28.0003 13.2878C28.0003 12.9196 27.7018 12.6211 27.3337 12.6211C26.9655 12.6211 26.667 12.9196 26.667 13.2878C26.667 13.656 26.9655 13.9544 27.3337 13.9544Z" fill="#BCAAA4"/>
<path d="M27.3337 20.6214C27.7018 20.6214 28.0003 20.3229 28.0003 19.9548C28.0003 19.5866 27.7018 19.2881 27.3337 19.2881C26.9655 19.2881 26.667 19.5866 26.667 19.9548C26.667 20.3229 26.9655 20.6214 27.3337 20.6214Z" fill="#BCAAA4"/>
<path d="M23.3337 10.6214C23.7018 10.6214 24.0003 10.3229 24.0003 9.95475C24.0003 9.58656 23.7018 9.28809 23.3337 9.28809C22.9655 9.28809 22.667 9.58656 22.667 9.95475C22.667 10.3229 22.9655 10.6214 23.3337 10.6214Z" fill="#BCAAA4"/>
<path d="M23.3337 17.2874C23.7018 17.2874 24.0003 16.989 24.0003 16.6208C24.0003 16.2526 23.7018 15.9541 23.3337 15.9541C22.9655 15.9541 22.667 16.2526 22.667 16.6208C22.667 16.989 22.9655 17.2874 23.3337 17.2874Z" fill="#BCAAA4"/>
<path d="M23.3337 23.9544C23.7018 23.9544 24.0003 23.656 24.0003 23.2878C24.0003 22.9196 23.7018 22.6211 23.3337 22.6211C22.9655 22.6211 22.667 22.9196 22.667 23.2878C22.667 23.656 22.9655 23.9544 23.3337 23.9544Z" fill="#BCAAA4"/>
<path d="M4.66667 13.9544C5.03486 13.9544 5.33333 13.656 5.33333 13.2878C5.33333 12.9196 5.03486 12.6211 4.66667 12.6211C4.29848 12.6211 4 12.9196 4 13.2878C4 13.656 4.29848 13.9544 4.66667 13.9544Z" fill="#BCAAA4"/>
<path d="M4.66667 20.6214C5.03486 20.6214 5.33333 20.3229 5.33333 19.9548C5.33333 19.5866 5.03486 19.2881 4.66667 19.2881C4.29848 19.2881 4 19.5866 4 19.9548C4 20.3229 4.29848 20.6214 4.66667 20.6214Z" fill="#BCAAA4"/>
<path d="M8.66667 10.6214C9.03486 10.6214 9.33333 10.3229 9.33333 9.95475C9.33333 9.58656 9.03486 9.28809 8.66667 9.28809C8.29848 9.28809 8 9.58656 8 9.95475C8 10.3229 8.29848 10.6214 8.66667 10.6214Z" fill="#BCAAA4"/>
<path d="M8.66667 17.2874C9.03486 17.2874 9.33333 16.989 9.33333 16.6208C9.33333 16.2526 9.03486 15.9541 8.66667 15.9541C8.29848 15.9541 8 16.2526 8 16.6208C8 16.989 8.29848 17.2874 8.66667 17.2874Z" fill="#BCAAA4"/>
<path d="M8.66667 23.9544C9.03486 23.9544 9.33333 23.656 9.33333 23.2878C9.33333 22.9196 9.03486 22.6211 8.66667 22.6211C8.29848 22.6211 8 22.9196 8 23.2878C8 23.656 8.29848 23.9544 8.66667 23.9544Z" fill="#BCAAA4"/>
</svg>
