<svg width="32" height="33" viewBox="0 0 32 33" fill="none" xmlns="http://www.w3.org/2000/svg">
<path d="M13.333 11.9541C13.333 11.6005 13.1925 11.2614 12.9425 11.0113C12.6924 10.7613 12.3533 10.6208 11.9997 10.6208C11.9793 10.6208 11.9604 10.6259 11.9403 10.6268C11.8733 10.4306 11.7466 10.2602 11.5779 10.1396C11.4092 10.019 11.207 9.9541 10.9997 9.9541C10.7923 9.9541 10.5901 10.019 10.4215 10.1396C10.2528 10.2602 10.1261 10.4306 10.059 10.6268C10.0389 10.6259 10.02 10.6208 9.99967 10.6208C9.64605 10.6208 9.30691 10.7613 9.05687 11.0113C8.80682 11.2614 8.66634 11.6005 8.66634 11.9541C8.31272 11.9541 7.97358 12.0946 7.72353 12.3446C7.47348 12.5947 7.33301 12.9338 7.33301 13.2875C7.33301 13.6411 7.47348 13.9802 7.72353 14.2303C7.97358 14.4803 8.31272 14.6208 8.66634 14.6208H13.333C13.6866 14.6208 14.0258 14.4803 14.2758 14.2303C14.5259 13.9802 14.6663 13.6411 14.6663 13.2875C14.6663 12.9338 14.5259 12.5947 14.2758 12.3446C14.0258 12.0946 13.6866 11.9541 13.333 11.9541Z" fill="#21A366"/>
<path d="M28.667 10.6211C28.667 10.2675 28.5265 9.92835 28.2765 9.6783C28.0264 9.42825 27.6873 9.28778 27.3337 9.28778C27.3133 9.28778 27.2944 9.29286 27.2743 9.29378C27.2073 9.09755 27.0805 8.92719 26.9119 8.80657C26.7432 8.68595 26.541 8.62109 26.3337 8.62109C26.1263 8.62109 25.9241 8.68595 25.7555 8.80657C25.5868 8.92719 25.4601 9.09755 25.393 9.29378C25.3729 9.29286 25.354 9.28778 25.3337 9.28778C24.98 9.28778 24.6409 9.42825 24.3908 9.6783C24.1408 9.92835 24.0003 10.2675 24.0003 10.6211C23.6467 10.6211 23.3076 10.7616 23.0575 11.0116C22.8075 11.2617 22.667 11.6008 22.667 11.9544C22.667 12.3081 22.8075 12.6472 23.0575 12.8973C23.3076 13.1473 23.6467 13.2878 24.0003 13.2878H28.667C29.0206 13.2878 29.3598 13.1473 29.6098 12.8973C29.8599 12.6472 30.0003 12.3081 30.0003 11.9544C30.0003 11.6008 29.8599 11.2617 29.6098 11.0116C29.3598 10.7616 29.0206 10.6211 28.667 10.6211Z" fill="#21A366"/>
<path d="M9.33333 11.9544C9.33333 11.6008 9.19286 11.2617 8.94281 11.0116C8.69276 10.7616 8.35362 10.6211 8 10.6211C8 10.2675 7.85952 9.92835 7.60948 9.6783C7.35943 9.42825 7.02029 9.28778 6.66667 9.28778C6.64632 9.28778 6.6274 9.29286 6.6073 9.29378C6.54027 9.09755 6.41354 8.92719 6.24487 8.80657C6.0762 8.68595 5.87403 8.62109 5.66667 8.62109C5.4593 8.62109 5.25713 8.68595 5.08846 8.80657C4.91979 8.92719 4.79307 9.09755 4.72603 9.29378C4.70593 9.29286 4.68701 9.28778 4.66667 9.28778C4.31304 9.28778 3.97391 9.42825 3.72386 9.6783C3.47381 9.92835 3.33333 10.2675 3.33333 10.6211C2.97971 10.6211 2.64057 10.7616 2.39052 11.0116C2.14048 11.2617 2 11.6008 2 11.9544V27.2878C2 27.6414 2.14048 27.9805 2.39052 28.2306C2.64057 28.4806 2.97971 28.6211 3.33333 28.6211H28.6667C29.0203 28.6211 29.3594 28.4806 29.6095 28.2306C29.8595 27.9805 30 27.6414 30 27.2878V11.9544H9.33333Z" fill="#33C481"/>
<path d="M28.6663 18.4877C28.6663 15.984 24.8384 13.9544 20.1163 13.9544C17.8904 13.8975 15.6881 14.422 13.7268 15.4762C13.2516 15.7593 12.6889 15.858 12.1458 15.7535C11.4593 15.6202 10.7615 15.5535 10.0622 15.5544C6.34575 15.5544 3.33301 17.3452 3.33301 19.5544C3.33301 21.7329 6.26277 23.5046 9.90795 23.5533C10.1373 23.563 10.361 23.6274 10.5603 23.7412C10.7597 23.855 10.9289 24.0149 11.0538 24.2075C12.0469 26.0016 14.7257 27.2877 18.2163 27.2877C22.5886 27.2877 26.133 25.2581 26.133 22.7544C26.133 22.709 26.1318 22.6639 26.1294 22.6188C26.1177 22.3572 26.1753 22.0971 26.2963 21.8648C26.4173 21.6325 26.5975 21.4363 26.8186 21.2959C27.9736 20.5241 28.6663 19.5497 28.6663 18.4877Z" fill="url(#paint0_linear_3510_3904)"/>
<path opacity="0.05" d="M20.113 13.9544C17.8882 13.8974 15.6869 14.4213 13.7263 15.4744C13.2525 15.76 12.6895 15.8598 12.1463 15.7544C11.4588 15.6213 10.76 15.5543 10.0597 15.5544C6.34634 15.5544 3.33301 17.3477 3.33301 19.5544C3.33301 21.7344 6.25967 23.5077 9.90634 23.5544C10.1358 23.5638 10.3596 23.628 10.5591 23.7416C10.7586 23.8553 10.928 24.0151 11.053 24.2077C12.0463 26.0011 14.7263 27.2877 18.2197 27.2877C22.5863 27.2877 26.133 25.2611 26.133 22.7544C26.1343 22.7098 26.1321 22.6653 26.1263 22.6211C26.1157 22.3586 26.1742 22.0979 26.2958 21.8651C26.4175 21.6323 26.5981 21.4355 26.8197 21.2944C27.973 20.5211 28.6663 19.5477 28.6663 18.4877C28.6663 15.9811 24.8397 13.9544 20.113 13.9544ZM25.4663 22.6544V22.7544C25.4663 24.8477 22.1463 26.6211 18.2197 26.6211C15.1397 26.6211 12.5597 25.5477 11.6397 23.8877C11.4585 23.5914 11.2064 23.3448 10.9061 23.1702C10.6058 22.9957 10.2668 22.8986 9.91967 22.8877C6.70634 22.8411 3.99967 21.3144 3.99967 19.5544C3.99967 17.7477 6.77301 16.2211 10.0597 16.2211C10.7176 16.2188 11.3741 16.2813 12.0197 16.4077C12.2021 16.4423 12.3873 16.4602 12.573 16.4611C13.0992 16.4622 13.6156 16.3193 14.0663 16.0477C15.9255 15.0596 18.0083 14.5682 20.113 14.6211C24.3863 14.6211 27.9997 16.3944 27.9997 18.4877C27.9997 19.4944 27.153 20.2677 26.4463 20.7411C26.1293 20.9457 25.8717 21.2304 25.6997 21.5663C25.5276 21.9022 25.4471 22.2775 25.4663 22.6544Z" fill="black"/>
<path opacity="0.05" d="M20.113 13.9544C17.8882 13.8974 15.6869 14.4213 13.7263 15.4744C13.2525 15.76 12.6895 15.8598 12.1463 15.7544C11.4588 15.6213 10.76 15.5543 10.0597 15.5544C6.34634 15.5544 3.33301 17.3477 3.33301 19.5544C3.33301 21.7344 6.25967 23.5077 9.90634 23.5544C10.1358 23.5638 10.3596 23.628 10.5591 23.7416C10.7586 23.8553 10.928 24.0151 11.053 24.2077C12.0463 26.0011 14.7263 27.2877 18.2197 27.2877C22.5863 27.2877 26.133 25.2611 26.133 22.7544C26.1343 22.7098 26.1321 22.6653 26.1263 22.6211C26.1157 22.3586 26.1742 22.0979 26.2958 21.8651C26.4175 21.6323 26.5981 21.4355 26.8197 21.2944C27.973 20.5211 28.6663 19.5477 28.6663 18.4877C28.6663 15.9811 24.8397 13.9544 20.113 13.9544ZM26.633 21.0211C26.3638 21.1926 26.1444 21.4321 25.997 21.7152C25.8495 21.9984 25.7792 22.3154 25.793 22.6344C25.7985 22.6741 25.8008 22.7143 25.7997 22.7544C25.7997 25.0677 22.3997 26.9544 18.2197 26.9544C15.0197 26.9544 12.3263 25.8144 11.3463 24.0477C11.193 23.8034 10.9823 23.6003 10.7324 23.4562C10.4826 23.3121 10.2012 23.2314 9.91301 23.2211C6.46634 23.1744 3.66634 21.5277 3.66634 19.5544C3.66634 17.5344 6.53301 15.8877 10.0597 15.8877C10.7376 15.8877 11.414 15.9524 12.0797 16.0811C12.2421 16.1134 12.4074 16.129 12.573 16.1277C13.0403 16.1278 13.4988 16.0011 13.8997 15.7611C15.8095 14.7434 17.9496 14.2359 20.113 14.2877C24.6463 14.2877 28.333 16.1744 28.333 18.4877C28.333 19.6411 27.4063 20.5011 26.633 21.0211Z" fill="black"/>
<defs>
<linearGradient id="paint0_linear_3510_3904" x1="12.695" y1="9.93837" x2="20.0023" y2="30.0144" gradientUnits="userSpaceOnUse">
<stop stop-color="#2AA4F4"/>
<stop offset="1" stop-color="#007AD9"/>
</linearGradient>
</defs>
</svg>
