<svg width="32" height="33" viewBox="0 0 32 33" fill="none" xmlns="http://www.w3.org/2000/svg">
<path d="M21.0599 24.0848C21.765 25.7246 22.0782 27.5062 21.9745 29.2881C20.6416 28.101 19.6033 26.62 18.9419 24.9621C18.2367 23.3223 17.9235 21.5407 18.0272 19.7588C19.3604 20.9457 20.3987 22.4268 21.0599 24.0848Z" fill="#33C481"/>
<path d="M21.3346 29.2881C21.2471 29.2882 21.1603 29.271 21.0794 29.2375C20.9985 29.204 20.925 29.1549 20.8631 29.093C20.8011 29.0311 20.752 28.9576 20.7186 28.8766C20.6851 28.7957 20.6679 28.709 20.668 28.6214V7.95475C20.668 7.77794 20.7382 7.60837 20.8632 7.48335C20.9883 7.35832 21.1578 7.28809 21.3346 7.28809C21.5114 7.28809 21.681 7.35832 21.806 7.48335C21.9311 7.60837 22.0013 7.77794 22.0013 7.95475V28.6214C22.0014 28.709 21.9842 28.7957 21.9507 28.8766C21.9172 28.9576 21.8681 29.0311 21.8062 29.093C21.7443 29.1549 21.6708 29.204 21.5899 29.2375C21.5089 29.271 21.4222 29.2882 21.3346 29.2881Z" fill="#21A366"/>
<path d="M21.3333 16.6211C20.9798 16.621 20.6407 16.4804 20.3907 16.2304C20.1406 15.9804 20.0001 15.6413 20 15.2878V9.95443C20 9.60081 20.1405 9.26167 20.3905 9.01162C20.6406 8.76157 20.9797 8.62109 21.3333 8.62109C21.687 8.62109 22.0261 8.76157 22.2761 9.01162C22.5262 9.26167 22.6667 9.60081 22.6667 9.95443V15.2878C22.6665 15.6413 22.526 15.9804 22.276 16.2304C22.026 16.4804 21.6869 16.621 21.3333 16.6211Z" fill="#C26715"/>
<path d="M24.4453 23.7324C23.0427 25.0983 21.9775 26.7721 21.334 28.6211C23.183 27.9776 24.8567 26.9123 26.2226 25.5098C27.6252 24.1439 28.6905 22.4701 29.334 20.6211C27.485 21.2646 25.8112 22.3298 24.4453 23.7324Z" fill="#107C42"/>
<path d="M22.4315 21.8842C21.6093 23.7975 21.2439 25.8759 21.3642 27.9549C22.9195 26.5701 24.1309 24.842 24.9022 22.9076C25.7244 20.9943 26.0898 18.9159 25.9695 16.8369C24.4142 18.2217 23.2028 19.9499 22.4315 21.8842Z" fill="#33C481"/>
<path d="M3.33398 3.9541C6.1488 5.36151 10.371 8.52817 10.371 11.6948C10.371 14.8615 3.33398 18.2041 3.33398 22.9541C3.33398 27.1763 8.25991 29.2874 8.25991 29.2874H28.6673C28.6673 29.2874 18.1118 26.8245 15.2969 22.2504C13.1464 18.7558 16.7044 15.9171 16.7044 11.6948C16.7044 7.47262 7.5562 3.9541 7.5562 3.9541H3.33398Z" fill="url(#paint0_linear_3510_3897)"/>
<defs>
<linearGradient id="paint0_linear_3510_3897" x1="16.0006" y1="2.52343" x2="16.0006" y2="35.1161" gradientUnits="userSpaceOnUse">
<stop stop-color="#2AA4F4"/>
<stop offset="1" stop-color="#007AD9"/>
</linearGradient>
</defs>
</svg>
