<svg width="33" height="32" viewBox="0 0 33 32" fill="none" xmlns="http://www.w3.org/2000/svg">
<path d="M11.3568 19.3337C14.3023 19.3337 16.6901 16.9458 16.6901 14.0003C16.6901 11.0548 14.3023 8.66699 11.3568 8.66699C8.41125 8.66699 6.02344 11.0548 6.02344 14.0003C6.02344 16.9458 8.41125 19.3337 11.3568 19.3337Z" fill="url(#paint0_linear_2954_4848)"/>
<path d="M26.8101 11.0003C26.7368 10.8137 26.6568 10.627 26.5701 10.447L26.3501 10.0003L26.1901 9.67366L25.6968 8.66699H19.6834L19.1901 9.67366L19.0301 10.0003L18.8101 10.447C18.7234 10.627 18.6434 10.8137 18.5701 11.0003C18.2101 11.907 18.0234 12.887 18.0234 13.867V14.3337H27.3568V13.867C27.3568 12.887 27.1701 11.907 26.8101 11.0003Z" fill="url(#paint1_linear_2954_4848)"/>
<path d="M26.3493 9.99967H19.0293L19.1893 9.67301L19.6826 8.66634L20.8226 6.33301H24.556L25.696 8.66634L26.1893 9.67301L26.3493 9.99967Z" fill="url(#paint2_linear_2954_4848)"/>
<path d="M24.2323 16.4279L17.633 23.0272C17.1123 23.5479 16.2683 23.5479 15.7476 23.0272L9.14831 16.4279C8.62765 15.9072 8.62765 15.0632 9.14831 14.5426L15.7476 7.94323C16.2683 7.42257 17.1123 7.42257 17.633 7.94323L24.2323 14.5426C24.753 15.0632 24.753 15.9072 24.2323 16.4279Z" fill="url(#paint3_linear_2954_4848)"/>
<path d="M29.7628 14.173L29.4895 15.9997L29.4495 16.2663L27.8828 26.753C27.7695 27.473 27.1561 27.9997 26.4295 27.9997H6.94946C6.22279 27.9997 5.60946 27.473 5.49613 26.753L3.94279 16.2663L3.90279 15.9997L3.62946 14.173C3.56279 13.7263 3.90279 13.333 4.35613 13.333H29.0361C29.4895 13.333 29.8295 13.7263 29.7628 14.173Z" fill="url(#paint4_linear_2954_4848)"/>
<path d="M29.7628 14.173L29.4895 15.9997H3.90279L3.62946 14.173C3.56279 13.7263 3.90279 13.333 4.35613 13.333H29.0361C29.4895 13.333 29.8295 13.7263 29.7628 14.173Z" fill="#33C481"/>
<path d="M14.3555 26.6663C13.8035 26.6663 13.3555 26.2183 13.3555 25.6663V18.333C13.3555 17.781 13.8035 17.333 14.3555 17.333C14.9075 17.333 15.3555 17.781 15.3555 18.333V25.6663C15.3555 26.2183 14.9075 26.6663 14.3555 26.6663Z" fill="#107C42"/>
<path d="M9.68945 26.6663C9.13745 26.6663 8.68945 26.2183 8.68945 25.6663V18.333C8.68945 17.781 9.13745 17.333 9.68945 17.333C10.2415 17.333 10.6895 17.781 10.6895 18.333V25.6663C10.6895 26.2183 10.2415 26.6663 9.68945 26.6663Z" fill="#107C42"/>
<path d="M19.0234 26.6663C18.4714 26.6663 18.0234 26.2183 18.0234 25.6663V18.333C18.0234 17.781 18.4714 17.333 19.0234 17.333C19.5754 17.333 20.0234 17.781 20.0234 18.333V25.6663C20.0234 26.2183 19.5754 26.6663 19.0234 26.6663Z" fill="#107C42"/>
<path d="M23.6895 26.6663C23.1375 26.6663 22.6895 26.2183 22.6895 25.6663V18.333C22.6895 17.781 23.1375 17.333 23.6895 17.333C24.2415 17.333 24.6895 17.781 24.6895 18.333V25.6663C24.6895 26.2183 24.2415 26.6663 23.6895 26.6663Z" fill="#107C42"/>
<path d="M21.0234 6.66699H24.3568C24.9088 6.66699 25.3568 6.21899 25.3568 5.66699C25.3568 5.11499 24.9088 4.66699 24.3568 4.66699H21.0234C20.4714 4.66699 20.0234 5.11499 20.0234 5.66699C20.0234 6.21899 20.4714 6.66699 21.0234 6.66699Z" fill="url(#paint5_linear_2954_4848)"/>
<defs>
<linearGradient id="paint0_linear_2954_4848" x1="11.3568" y1="8.30433" x2="11.3568" y2="14.275" gradientUnits="userSpaceOnUse">
<stop stop-color="#F44F5A"/>
<stop offset="0.443" stop-color="#EE3D4A"/>
<stop offset="1" stop-color="#E52030"/>
</linearGradient>
<linearGradient id="paint1_linear_2954_4848" x1="22.6901" y1="9.33366" x2="22.6901" y2="14.4997" gradientUnits="userSpaceOnUse">
<stop stop-color="#F9F9F9"/>
<stop offset="0.26" stop-color="#F0F1F2"/>
<stop offset="0.678" stop-color="#D9DCDF"/>
<stop offset="1" stop-color="#C2C8CC"/>
</linearGradient>
<linearGradient id="paint2_linear_2954_4848" x1="22.6893" y1="5.53901" x2="22.6893" y2="11.1003" gradientUnits="userSpaceOnUse">
<stop stop-color="#32BDEF"/>
<stop offset="1" stop-color="#1EA2E4"/>
</linearGradient>
<linearGradient id="paint3_linear_2954_4848" x1="16.6896" y1="7.62723" x2="16.6896" y2="14.0972" gradientUnits="userSpaceOnUse">
<stop stop-color="#FED100"/>
<stop offset="0.387" stop-color="#FDCF00"/>
<stop offset="0.574" stop-color="#FBC700"/>
<stop offset="0.718" stop-color="#F6BA00"/>
<stop offset="0.84" stop-color="#F0A801"/>
<stop offset="0.947" stop-color="#E89001"/>
<stop offset="1" stop-color="#E38101"/>
</linearGradient>
<linearGradient id="paint4_linear_2954_4848" x1="16.6961" y1="15.245" x2="16.6961" y2="33.9217" gradientUnits="userSpaceOnUse">
<stop stop-color="#21AD64"/>
<stop offset="1" stop-color="#088242"/>
</linearGradient>
<linearGradient id="paint5_linear_2954_4848" x1="22.6901" y1="3.34233" x2="22.6901" y2="9.06766" gradientUnits="userSpaceOnUse">
<stop offset="0.002" stop-color="#427FDB"/>
<stop offset="0.397" stop-color="#2668CB"/>
<stop offset="0.763" stop-color="#1358BF"/>
<stop offset="1" stop-color="#0C52BB"/>
</linearGradient>
</defs>
</svg>
