<svg width="32" height="33" viewBox="0 0 32 33" fill="none" xmlns="http://www.w3.org/2000/svg">
<path d="M15.3324 29.2881C14.9324 29.2881 14.6657 29.0214 14.6657 28.6214C14.6657 28.4881 14.599 25.0214 11.0657 23.2214C10.7324 23.0881 10.599 22.6881 10.799 22.3548C10.9324 22.0214 11.3324 21.8881 11.6657 22.0881C15.999 24.2214 16.0657 28.4881 16.0657 28.6881C15.999 29.0214 15.7324 29.2881 15.3324 29.2881Z" fill="#8BC34A"/>
<path d="M13.066 18.4882C10.3327 17.0215 5.73268 18.8882 4.66602 19.2882C6.26602 20.2882 6.33268 25.4215 9.26602 26.4215C11.3327 27.1548 13.066 26.2215 13.1993 23.3548C15.3327 22.1548 14.9993 19.4882 13.066 18.4882ZM15.3327 29.2882C14.9327 29.2882 14.666 29.0215 14.666 28.6215C14.666 24.1548 17.7327 23.3548 17.866 23.2882C18.1993 23.2215 18.5993 23.4215 18.666 23.7548C18.7327 24.0882 18.5327 24.4882 18.1993 24.5548C18.1327 24.5548 15.9993 25.2215 15.9993 28.5548C15.9993 29.0215 15.7327 29.2882 15.3327 29.2882Z" fill="#8BC34A"/>
<path d="M18.5342 19.4213C21.0675 18.6879 24.5342 20.7546 25.3342 21.2879C23.8009 21.8213 22.8675 26.2879 20.2009 26.6213C18.3342 26.8213 17.0675 25.8213 17.4675 23.4213C15.9342 22.0213 16.7342 19.9546 18.5342 19.4213Z" fill="#8BC34A"/>
<path d="M9.26601 26.4214C6.33268 25.4214 6.26602 20.2881 4.66602 19.2881C6.06602 19.4214 8.59935 20.3548 13.1993 23.2881C13.066 26.2214 11.3327 27.0881 9.26601 26.4214ZM20.1993 26.6214C22.7993 26.2881 23.7993 21.8881 25.3327 21.2881C24.1327 21.1548 21.866 21.7548 17.466 23.3548C17.066 25.8214 18.3327 26.8214 20.1993 26.6214Z" fill="#689F38"/>
<path d="M18.5991 14.7544C17.8658 15.4878 16.5991 15.4878 15.8658 14.7544C15.1324 14.0211 15.1324 12.7544 15.8658 12.0211C16.5991 11.2878 19.9991 10.6211 19.9991 10.6211C19.9991 10.6211 19.3991 13.9544 18.5991 14.7544ZM25.9324 8.68776C25.1991 9.42109 23.9324 9.42109 23.1991 8.68776C22.4658 7.95443 22.4658 6.68776 23.1991 5.95443C23.9991 5.22109 27.3324 4.62109 27.3324 4.62109C27.3324 4.62109 26.7324 7.95443 25.9324 8.68776ZM13.2658 8.68776C12.5324 9.42109 11.2658 9.42109 10.5324 8.68776C9.79909 7.95443 9.79909 6.68776 10.5324 5.95443C11.3324 5.22109 14.6658 4.62109 14.6658 4.62109C14.6658 4.62109 14.0658 7.95443 13.2658 8.68776Z" fill="#2196F3"/>
</svg>
