<svg width="32" height="33" viewBox="0 0 32 33" fill="none" xmlns="http://www.w3.org/2000/svg">
<path d="M15.9997 5.28809C17.2374 5.28809 18.4243 5.77975 19.2995 6.65492C20.1747 7.53009 20.6663 8.71708 20.6663 9.95475V11.2881H11.333V9.95475C11.333 8.71708 11.8247 7.53009 12.6998 6.65492C13.575 5.77975 14.762 5.28809 15.9997 5.28809Z" fill="url(#paint0_linear_3598_7186)"/>
<path d="M20.6663 10.6211H11.333V16.6211H20.6663V10.6211Z" fill="url(#paint1_linear_3598_7186)"/>
<path d="M13.3337 11.9541C13.5105 11.9541 13.68 12.0243 13.8051 12.1494C13.9301 12.2744 14.0003 12.444 14.0003 12.6208V15.2874H12.667V12.6208C12.667 12.444 12.7372 12.2744 12.8623 12.1494C12.9873 12.0243 13.1568 11.9541 13.3337 11.9541Z" fill="#C28200"/>
<path d="M15.9997 11.9541C16.1765 11.9541 16.3461 12.0243 16.4711 12.1494C16.5961 12.2744 16.6663 12.444 16.6663 12.6208V15.2874H15.333V12.6208C15.333 12.444 15.4032 12.2744 15.5283 12.1494C15.6533 12.0243 15.8229 11.9541 15.9997 11.9541Z" fill="#C28200"/>
<path d="M18.6667 11.9541C18.8435 11.9541 19.013 12.0243 19.1381 12.1494C19.2631 12.2744 19.3333 12.444 19.3333 12.6208V15.2874H18V12.6208C18 12.444 18.0702 12.2744 18.1953 12.1494C18.3203 12.0243 18.4899 11.9541 18.6667 11.9541Z" fill="#C28200"/>
<path d="M15.9997 14.6211L3.33301 18.6211V29.2878H15.9997H28.6663V18.6211L15.9997 14.6211Z" fill="url(#paint2_linear_3598_7186)"/>
<path d="M22.6663 16.6211L15.9997 14.6211L9.33301 16.6211V29.2878H22.6663V16.6211Z" fill="url(#paint3_linear_3598_7186)"/>
<path d="M28.8098 19.4851L15.9997 15.3215L3.18967 19.4851C3.10562 19.5124 3.01416 19.5052 2.9354 19.4651C2.85664 19.425 2.79703 19.3553 2.76967 19.2712L2.56324 18.637C2.54969 18.5953 2.54447 18.5514 2.54789 18.5078C2.55131 18.4641 2.5633 18.4216 2.58317 18.3825C2.60303 18.3435 2.63039 18.3088 2.66368 18.2804C2.69698 18.2519 2.73554 18.2303 2.77719 18.2168L15.7937 13.9867C15.9276 13.9432 16.0719 13.9432 16.2058 13.9867L29.2223 18.2168C29.2639 18.2303 29.3025 18.2519 29.3358 18.2804C29.3691 18.3088 29.3965 18.3435 29.4163 18.3825C29.4362 18.4216 29.4482 18.4641 29.4516 18.5078C29.455 18.5514 29.4498 18.5953 29.4363 18.637L29.2298 19.2712C29.2025 19.3553 29.1429 19.425 29.0641 19.4651C28.9853 19.5052 28.8939 19.5124 28.8098 19.4851Z" fill="url(#paint4_linear_3598_7186)"/>
<path d="M15.9997 21.9541C16.7069 21.9541 17.3852 22.2351 17.8853 22.7352C18.3854 23.2352 18.6663 23.9135 18.6663 24.6208V29.2874H13.333V24.6208C13.333 23.9135 13.614 23.2352 14.1141 22.7352C14.6142 22.2351 15.2924 21.9541 15.9997 21.9541Z" fill="url(#paint5_linear_3598_7186)"/>
<path d="M6.33301 21.9541C6.59822 21.9541 6.85258 22.0595 7.04011 22.247C7.22765 22.4345 7.33301 22.6889 7.33301 22.9541V25.2874H5.33301V22.9541C5.33301 22.6889 5.43836 22.4345 5.6259 22.247C5.81344 22.0595 6.06779 21.9541 6.33301 21.9541Z" fill="#C28200"/>
<path d="M25.667 21.9541C25.9322 21.9541 26.1866 22.0595 26.3741 22.247C26.5616 22.4345 26.667 22.6889 26.667 22.9541V25.2874H24.667V22.9541C24.667 22.6889 24.7723 22.4345 24.9599 22.247C25.1474 22.0595 25.4018 21.9541 25.667 21.9541Z" fill="#C28200"/>
<path opacity="0.05" d="M16.413 13.3547C16.1446 13.2659 15.8547 13.2659 15.5863 13.3547L11.333 14.7347V15.4347L15.793 13.9881C15.9272 13.9436 16.0721 13.9436 16.2063 13.9881L20.6663 15.4347V14.7347L16.413 13.3547Z" fill="black"/>
<path opacity="0.07" d="M16.3063 13.6678C16.1066 13.6055 15.8927 13.6055 15.693 13.6678L11.333 15.0878V15.4344L15.793 13.9878C15.9272 13.9433 16.0721 13.9433 16.2063 13.9878L20.6663 15.4344V15.0878L16.3063 13.6678Z" fill="black"/>
<path opacity="0.05" d="M15.9997 15.3213L3.33301 19.4413V20.1346C3.35359 20.1334 3.37384 20.1289 3.39301 20.1213L15.9997 16.0213L28.6063 20.1213C28.6255 20.1289 28.6458 20.1334 28.6663 20.1346V19.4413L15.9997 15.3213Z" fill="black"/>
<path opacity="0.07" d="M15.9997 15.3213L3.33301 19.4413V19.788L15.9997 15.6746L28.6663 19.788V19.4413L15.9997 15.3213Z" fill="black"/>
<defs>
<linearGradient id="paint0_linear_3598_7186" x1="11.333" y1="8.28809" x2="20.6663" y2="8.28809" gradientUnits="userSpaceOnUse">
<stop stop-color="#D43A02"/>
<stop offset="1" stop-color="#B9360C"/>
</linearGradient>
<linearGradient id="paint1_linear_3598_7186" x1="15.9997" y1="8.44709" x2="15.9997" y2="15.1378" gradientUnits="userSpaceOnUse">
<stop stop-color="#FFCF54"/>
<stop offset="0.261" stop-color="#FDCB4D"/>
<stop offset="0.639" stop-color="#F7C13A"/>
<stop offset="1" stop-color="#F0B421"/>
</linearGradient>
<linearGradient id="paint2_linear_3598_7186" x1="11.8937" y1="12.6738" x2="21.5617" y2="39.2358" gradientUnits="userSpaceOnUse">
<stop stop-color="#EBA600"/>
<stop offset="1" stop-color="#C28200"/>
</linearGradient>
<linearGradient id="paint3_linear_3598_7186" x1="11.1817" y1="9.71709" x2="19.2477" y2="31.8771" gradientUnits="userSpaceOnUse">
<stop stop-color="#FFCF54"/>
<stop offset="0.261" stop-color="#FDCB4D"/>
<stop offset="0.639" stop-color="#F7C13A"/>
<stop offset="1" stop-color="#F0B421"/>
</linearGradient>
<linearGradient id="paint4_linear_3598_7186" x1="15.9997" y1="10.3853" x2="15.9997" y2="17.2333" gradientUnits="userSpaceOnUse">
<stop stop-color="#D43A02"/>
<stop offset="1" stop-color="#B9360C"/>
</linearGradient>
<linearGradient id="paint5_linear_3598_7186" x1="15.9997" y1="20.3308" x2="15.9997" y2="31.5448" gradientUnits="userSpaceOnUse">
<stop stop-color="#D43A02"/>
<stop offset="1" stop-color="#B9360C"/>
</linearGradient>
</defs>
</svg>
