<svg width="32" height="33" viewBox="0 0 32 33" fill="none" xmlns="http://www.w3.org/2000/svg">
<path d="M19.6667 3.9541C18.1638 3.9541 16.7224 4.55112 15.6597 5.61383C14.597 6.67654 14 8.11787 14 9.62077C14 11.1237 14.597 12.565 15.6597 13.6277C16.7224 14.6904 18.1638 15.2874 19.6667 15.2874C21.1696 15.2874 22.6109 14.6904 23.6736 13.6277C24.7363 12.565 25.3333 11.1237 25.3333 9.62077C25.3333 8.11787 24.7363 6.67654 23.6736 5.61383C22.6109 4.55112 21.1696 3.9541 19.6667 3.9541Z" fill="#BBDEFB"/>
<path d="M24.666 10.5498C23.4283 10.5498 22.2414 11.0415 21.3662 11.9166C20.491 12.7918 19.9993 13.9788 19.9993 15.2165C19.9993 16.4541 20.491 17.6411 21.3662 18.5163C22.2414 19.3915 23.4283 19.8831 24.666 19.8831C25.9037 19.8831 27.0907 19.3915 27.9658 18.5163C28.841 17.6411 29.3327 16.4541 29.3327 15.2165C29.3327 13.9788 28.841 12.7918 27.9658 11.9166C27.0907 11.0415 25.9037 10.5498 24.666 10.5498ZM7.33268 10.6211C6.71985 10.6211 6.11301 10.7418 5.54683 10.9764C4.98064 11.2109 4.46619 11.5546 4.03285 11.988C3.59951 12.4213 3.25577 12.9358 3.02124 13.5019C2.78672 14.0681 2.66602 14.675 2.66602 15.2878C2.66602 15.9006 2.78672 16.5075 3.02124 17.0737C3.25577 17.6398 3.59951 18.1543 4.03285 18.5876C4.46619 19.021 4.98064 19.3647 5.54683 19.5992C6.11301 19.8338 6.71985 19.9545 7.33268 19.9545C7.94552 19.9545 8.55235 19.8338 9.11854 19.5992C9.68472 19.3647 10.1992 19.021 10.6325 18.5876C11.0659 18.1543 11.4096 17.6398 11.6441 17.0737C11.8786 16.5075 11.9993 15.9006 11.9993 15.2878C11.9993 14.675 11.8786 14.0681 11.6441 13.5019C11.4096 12.9358 11.0659 12.4213 10.6325 11.988C10.1992 11.5546 9.68472 11.2109 9.11854 10.9764C8.55235 10.7418 7.94552 10.6211 7.33268 10.6211Z" fill="#BBDEFB"/>
<path d="M11.6673 5.9541C10.518 5.9541 9.41585 6.41065 8.60319 7.22331C7.79053 8.03596 7.33398 9.13816 7.33398 10.2874C7.33398 11.4367 7.79053 12.5389 8.60319 13.3516C9.41585 14.1642 10.518 14.6208 11.6673 14.6208C12.8166 14.6208 13.9188 14.1642 14.7314 13.3516C15.5441 12.5389 16.0007 11.4367 16.0007 10.2874C16.0007 9.13816 15.5441 8.03596 14.7314 7.22331C13.9188 6.41065 12.8166 5.9541 11.6673 5.9541Z" fill="#BBDEFB"/>
<path d="M16.6667 9.2168C16.0538 9.2168 15.447 9.3375 14.8808 9.57203C14.3146 9.80655 13.8002 10.1503 13.3668 10.5836C12.9335 11.017 12.5898 11.5314 12.3552 12.0976C12.1207 12.6638 12 13.2706 12 13.8835C12 14.4963 12.1207 15.1031 12.3552 15.6693C12.5898 16.2355 12.9335 16.75 13.3668 17.1833C13.8002 17.6166 14.3146 17.9604 14.8808 18.1949C15.447 18.4294 16.0538 18.5501 16.6667 18.5501C17.2795 18.5501 17.8863 18.4294 18.4525 18.1949C19.0187 17.9604 19.5332 17.6166 19.9665 17.1833C20.3998 16.75 20.7436 16.2355 20.9781 15.6693C21.2126 15.1031 21.3333 14.4963 21.3333 13.8835C21.3333 13.2706 21.2126 12.6638 20.9781 12.0976C20.7436 11.5314 20.3998 11.017 19.9665 10.5836C19.5332 10.1503 19.0187 9.80655 18.4525 9.57203C17.8863 9.3375 17.2795 9.2168 16.6667 9.2168Z" fill="#BBDEFB"/>
<path d="M4.66602 17.2874C4.66602 18.7601 5.86002 19.9541 7.33268 19.9541H23.9993C25.472 19.9541 26.666 18.7601 26.666 17.2874V16.6208C26.666 15.1481 25.472 13.9541 23.9993 13.9541H7.33268C5.86002 13.9541 4.66602 15.1481 4.66602 16.6208V17.2874Z" fill="#BBDEFB"/>
<path d="M23.3002 25.3881C22.5456 26.1434 21.3216 26.1434 20.5662 25.3881C19.8103 24.6341 19.8109 23.4088 20.5662 22.6548C21.3216 21.8994 24.6669 21.2881 24.6669 21.2881C24.6669 21.2881 24.0549 24.6348 23.3002 25.3881ZM15.9669 28.0548C15.2122 28.8094 13.9883 28.8094 13.2329 28.0548C12.4776 27.2994 12.4783 26.0754 13.2329 25.3208C13.9883 24.5654 17.3342 23.9541 17.3342 23.9541C17.3342 23.9541 16.7216 27.3014 15.9669 28.0548ZM9.30025 25.3881C8.54558 26.1434 7.32158 26.1434 6.56625 25.3881C5.81092 24.6341 5.81158 23.4088 6.56625 22.6548C7.32092 21.8994 10.6669 21.2881 10.6669 21.2881C10.6669 21.2881 10.0549 24.6348 9.30025 25.3881Z" fill="#2196F3"/>
</svg>
