<svg width="32" height="33" viewBox="0 0 32 33" fill="none" xmlns="http://www.w3.org/2000/svg">
<path d="M30.0007 13.9541H27.334C26.966 13.9541 26.6673 13.6561 26.6673 13.2874V9.28743H24.0007C23.6327 9.28743 23.334 8.98943 23.334 8.62077C23.334 8.2521 23.6327 7.9541 24.0007 7.9541H27.334C27.702 7.9541 28.0007 8.2521 28.0007 8.62077V12.6208H30.0007C30.3687 12.6208 30.6673 12.9188 30.6673 13.2874C30.6673 13.6561 30.3687 13.9541 30.0007 13.9541Z" fill="#1A9BA1"/>
<path d="M28 21.9541H4V29.9541H28V21.9541Z" fill="url(#paint0_linear_3510_3875)"/>
<path d="M8.00065 25.2874H4.00065C3.63265 25.2874 3.33398 24.9888 3.33398 24.6208V22.6208C3.33398 22.2528 3.63265 21.9541 4.00065 21.9541H8.00065C8.36865 21.9541 8.66732 22.2528 8.66732 22.6208V24.6208C8.66732 24.9888 8.36865 25.2874 8.00065 25.2874Z" fill="#C0C9CC"/>
<path d="M14.6667 25.2874H10.6667C10.2987 25.2874 10 24.9888 10 24.6208V22.6208C10 22.2528 10.2987 21.9541 10.6667 21.9541H14.6667C15.0347 21.9541 15.3333 22.2528 15.3333 22.6208V24.6208C15.3333 24.9888 15.0347 25.2874 14.6667 25.2874Z" fill="#C0C9CC"/>
<path d="M21.3327 25.2874H17.3327C16.9647 25.2874 16.666 24.9888 16.666 24.6208V22.6208C16.666 22.2528 16.9647 21.9541 17.3327 21.9541H21.3327C21.7007 21.9541 21.9993 22.2528 21.9993 22.6208V24.6208C21.9993 24.9888 21.7007 25.2874 21.3327 25.2874Z" fill="#C0C9CC"/>
<path d="M28.0007 25.2874H24.0007C23.6327 25.2874 23.334 24.9888 23.334 24.6208V22.6208C23.334 22.2528 23.6327 21.9541 24.0007 21.9541H28.0007C28.3687 21.9541 28.6673 22.2528 28.6673 22.6208V24.6208C28.6673 24.9888 28.3687 25.2874 28.0007 25.2874Z" fill="#C0C9CC"/>
<path d="M4.66732 29.9544H4.00065C3.63265 29.9544 3.33398 29.6558 3.33398 29.2878V27.2878C3.33398 26.9198 3.63265 26.6211 4.00065 26.6211H4.66732C5.03532 26.6211 5.33398 26.9198 5.33398 27.2878V29.2878C5.33398 29.6558 5.03532 29.9544 4.66732 29.9544Z" fill="#C0C9CC"/>
<path d="M27.9993 29.9544H27.3327C26.9647 29.9544 26.666 29.6558 26.666 29.2878V27.2878C26.666 26.9198 26.9647 26.6211 27.3327 26.6211H27.9993C28.3673 26.6211 28.666 26.9198 28.666 27.2878V29.2878C28.666 29.6558 28.3673 29.9544 27.9993 29.9544Z" fill="#C0C9CC"/>
<path d="M11.3327 29.9544H7.33268C6.96468 29.9544 6.66602 29.6558 6.66602 29.2878V27.2878C6.66602 26.9198 6.96468 26.6211 7.33268 26.6211H11.3327C11.7007 26.6211 11.9993 26.9198 11.9993 27.2878V29.2878C11.9993 29.6558 11.7007 29.9544 11.3327 29.9544Z" fill="#C0C9CC"/>
<path d="M18.0007 29.9544H14.0007C13.6327 29.9544 13.334 29.6558 13.334 29.2878V27.2878C13.334 26.9198 13.6327 26.6211 14.0007 26.6211H18.0007C18.3687 26.6211 18.6673 26.9198 18.6673 27.2878V29.2878C18.6673 29.6558 18.3687 29.9544 18.0007 29.9544Z" fill="#C0C9CC"/>
<path d="M24.6667 29.9544H20.6667C20.2987 29.9544 20 29.6558 20 29.2878V27.2878C20 26.9198 20.2987 26.6211 20.6667 26.6211H24.6667C25.0347 26.6211 25.3333 26.9198 25.3333 27.2878V29.2878C25.3333 29.6558 25.0347 29.9544 24.6667 29.9544Z" fill="#C0C9CC"/>
<path d="M9.33398 4.62109H7.33398V21.9544H9.33398V4.62109Z" fill="url(#paint1_linear_3510_3875)"/>
<path d="M22.6673 6.62109H9.33398V10.6211H22.6673V6.62109Z" fill="#A04C0D"/>
<path d="M24.666 4.62109H22.666V21.9544H24.666V4.62109Z" fill="url(#paint2_linear_3510_3875)"/>
<path d="M18.0007 17.2881C17.6327 17.2881 17.334 16.9901 17.334 16.6214V15.9548C17.334 15.2194 16.736 14.6214 16.0007 14.6214C15.2653 14.6214 14.6673 15.2194 14.6673 15.9548V16.6214C14.6673 16.9901 14.3687 17.2881 14.0007 17.2881C13.6327 17.2881 13.334 16.9901 13.334 16.6214V15.9548C13.334 14.4841 14.53 13.2881 16.0007 13.2881C17.4713 13.2881 18.6673 14.4841 18.6673 15.9548V16.6214C18.6673 16.9901 18.3687 17.2881 18.0007 17.2881Z" fill="#1A9BA1"/>
<path d="M17.9993 20.6208H13.9993L12.666 15.9541H19.3327L17.9993 20.6208Z" fill="#37C6D0"/>
<path d="M16.0007 14.6208C15.6327 14.6208 15.334 14.3228 15.334 13.9541V10.6208C15.334 10.2521 15.6327 9.9541 16.0007 9.9541C16.3687 9.9541 16.6673 10.2521 16.6673 10.6208V13.9541C16.6673 14.3228 16.3687 14.6208 16.0007 14.6208Z" fill="#A1AAB3"/>
<path d="M10.6659 11.2876C10.5659 11.2876 10.4639 11.2649 10.3686 11.2176C10.0392 11.0529 9.9059 10.6523 10.0706 10.3229L12.0706 6.32294C12.2352 5.99427 12.6352 5.8616 12.9652 6.02494C13.2946 6.1896 13.4279 6.59027 13.2632 6.9196L11.2632 10.9196C11.1459 11.1529 10.9106 11.2876 10.6659 11.2876Z" fill="#C0C9CC"/>
<path d="M13.3319 11.2876C13.2319 11.2876 13.1299 11.2649 13.0346 11.2176C12.7052 11.0529 12.5719 10.6523 12.7366 10.3229L14.7366 6.32294C14.9012 5.99427 15.3012 5.8616 15.6312 6.02494C15.9606 6.1896 16.0939 6.59027 15.9292 6.9196L13.9292 10.9196C13.8119 11.1529 13.5766 11.2876 13.3319 11.2876Z" fill="#C0C9CC"/>
<path d="M15.9999 11.2876C15.8999 11.2876 15.7979 11.2649 15.7025 11.2176C15.3732 11.0529 15.2399 10.6523 15.4045 10.3229L17.4045 6.32294C17.5692 5.99427 17.9692 5.8616 18.2992 6.02494C18.6285 6.1896 18.7619 6.59027 18.5972 6.9196L16.5972 10.9196C16.4799 11.1529 16.2445 11.2876 15.9999 11.2876Z" fill="#C0C9CC"/>
<path d="M18.6659 11.2876C18.5659 11.2876 18.4639 11.2649 18.3686 11.2176C18.0392 11.0529 17.9059 10.6523 18.0706 10.3229L20.0706 6.32294C20.2352 5.99427 20.6346 5.8616 20.9652 6.02494C21.2946 6.1896 21.4279 6.59027 21.2632 6.9196L19.2632 10.9196C19.1459 11.1529 18.9106 11.2876 18.6659 11.2876Z" fill="#C0C9CC"/>
<defs>
<linearGradient id="paint0_linear_3510_3875" x1="15.908" y1="21.8294" x2="16.1227" y2="31.4641" gradientUnits="userSpaceOnUse">
<stop stop-color="#889097"/>
<stop offset="0.331" stop-color="#848C94"/>
<stop offset="0.669" stop-color="#78828B"/>
<stop offset="1" stop-color="#64717C"/>
</linearGradient>
<linearGradient id="paint1_linear_3510_3875" x1="8.24932" y1="9.49109" x2="8.47532" y2="19.6131" gradientUnits="userSpaceOnUse">
<stop stop-color="#DD7D22"/>
<stop offset="1" stop-color="#D97218"/>
</linearGradient>
<linearGradient id="paint2_linear_3510_3875" x1="23.5587" y1="8.47043" x2="23.8153" y2="19.9691" gradientUnits="userSpaceOnUse">
<stop stop-color="#DD7D22"/>
<stop offset="1" stop-color="#D97218"/>
</linearGradient>
</defs>
</svg>
