<svg width="32" height="32" viewBox="0 0 32 32" fill="none" xmlns="http://www.w3.org/2000/svg">
<path d="M8.69727 10H12.6973V28.6667C12.6972 28.8435 12.6269 29.013 12.5019 29.138C12.3769 29.263 12.2074 29.3333 12.0306 29.3333H9.36393C9.18714 29.3333 9.01761 29.263 8.8926 29.138C8.76759 29.013 8.69733 28.8435 8.69727 28.6667V10Z" fill="url(#paint0_linear_3598_7436)"/>
<path d="M17.4006 12.7268C18.0056 12.1204 18.4173 11.3483 18.5837 10.508C18.7501 9.66775 18.6637 8.797 18.3354 8.0058C18.0071 7.2146 17.4517 6.53846 16.7393 6.06279C16.0269 5.58713 15.1895 5.33328 14.3329 5.33333C14.2198 5.33333 14.1088 5.34175 13.9979 5.35026C13.9979 5.34448 13.9996 5.33911 13.9996 5.33333C13.9996 4.89559 13.9134 4.46214 13.7458 4.05772C13.5783 3.6533 13.3328 3.28584 13.0233 2.97631C12.7137 2.66678 12.3463 2.42125 11.9419 2.25373C11.5374 2.08622 11.104 2 10.6662 2C10.2285 2 9.79505 2.08622 9.39063 2.25373C8.98621 2.42125 8.61875 2.66678 8.30922 2.97631C7.99969 3.28584 7.75416 3.6533 7.58664 4.05772C7.41913 4.46214 7.33291 4.89559 7.33291 5.33333C7.33291 5.33911 7.33458 5.34448 7.33462 5.35026C7.2237 5.34175 7.1127 5.33333 6.99958 5.33333C6.14297 5.33328 5.30558 5.58713 4.59318 6.06279C3.88079 6.53846 3.32536 7.2146 2.99708 8.0058C2.66879 8.797 2.58238 9.66775 2.74877 10.508C2.91515 11.3483 3.32685 12.1204 3.93187 12.7268C3.07789 13.2906 2.45128 14.1387 2.16326 15.1206C1.87524 16.1025 1.94445 17.1547 2.3586 18.0904C2.77274 19.0261 3.50504 19.7848 4.4255 20.2319C5.34596 20.6789 6.39505 20.7853 7.38654 20.5323C7.51024 21.3132 7.90851 22.0243 8.50972 22.5378C9.11092 23.0512 9.87561 23.3333 10.6662 23.3333C11.4569 23.3333 12.2216 23.0512 12.8228 22.5378C13.424 22.0243 13.8222 21.3132 13.9459 20.5323C14.9364 20.7814 15.983 20.6725 16.901 20.2248C17.8189 19.777 18.549 19.0192 18.9624 18.0853C19.3757 17.1514 19.4457 16.1014 19.1599 15.1209C18.8741 14.1404 18.251 13.2924 17.4006 12.7268Z" fill="url(#paint1_linear_3598_7436)"/>
<path d="M18 23.333H22V28.6663C21.9999 28.8431 21.9297 29.0127 21.8047 29.1377C21.6797 29.2627 21.5101 29.3329 21.3333 29.333H18.6667C18.4899 29.3329 18.3203 29.2627 18.1953 29.1377C18.0703 29.0127 18.0001 28.8431 18 28.6663V23.333Z" fill="url(#paint2_linear_3598_7436)"/>
<path d="M29.7918 22.8285L26.0145 17.3332H26.1645C26.3745 17.3333 26.5806 17.2767 26.7611 17.1693C26.9415 17.0619 27.0896 16.9078 27.1897 16.7232C27.2898 16.5386 27.3381 16.3303 27.3295 16.1205C27.321 15.9107 27.2559 15.7071 27.1412 15.5312L23.9231 10.5874C24.0784 10.5296 24.2191 10.4385 24.3354 10.3206C24.4517 10.2026 24.5408 10.0607 24.5965 9.90465C24.6521 9.74861 24.673 9.5823 24.6575 9.41736C24.6421 9.25242 24.5908 9.09286 24.5071 8.94986L20.9245 2.87653C20.8293 2.71594 20.694 2.58289 20.5319 2.49049C20.3697 2.3981 20.1862 2.34954 19.9996 2.34961C19.813 2.34968 19.6295 2.39836 19.4674 2.49088C19.3053 2.58339 19.1701 2.71653 19.0751 2.8772L15.4925 8.95053C15.4082 9.09336 15.3564 9.25294 15.3406 9.41799C15.3248 9.58305 15.3455 9.74956 15.4011 9.90576C15.4567 10.062 15.5459 10.2041 15.6625 10.322C15.779 10.4399 15.9201 10.5308 16.0756 10.5883L12.8571 15.5339C12.7426 15.7096 12.6776 15.913 12.6692 16.1226C12.6607 16.3323 12.7091 16.5403 12.8092 16.7246C12.9093 16.909 13.0573 17.0629 13.2377 17.17C13.4181 17.2771 13.624 17.3335 13.8338 17.3332H13.9843L10.2092 22.8259C10.0877 23.0022 10.0168 23.2083 10.004 23.422C9.99128 23.6358 10.0372 23.8489 10.1368 24.0384C10.2364 24.2279 10.3859 24.3866 10.5691 24.4973C10.7524 24.608 10.9624 24.6665 11.1765 24.6665H28.8245C29.0383 24.6667 29.2482 24.6085 29.4314 24.498C29.6145 24.3876 29.764 24.2291 29.8636 24.0399C29.9632 23.8506 30.0092 23.6377 29.9965 23.4242C29.9839 23.2107 29.9131 23.0047 29.7918 22.8285Z" fill="url(#paint3_linear_3598_7436)"/>
<path opacity="0.05" d="M16.073 10.5866C15.9174 10.53 15.7761 10.4397 15.6595 10.3221C15.5428 10.2045 15.4536 10.0626 15.3982 9.90658C15.3427 9.7505 15.3225 9.58411 15.3389 9.4193C15.3553 9.2545 15.4079 9.09535 15.493 8.95326L17.0597 6.29325C16.973 6.22659 16.8797 6.15326 16.7863 6.09326C16.693 6.03326 16.5997 5.97326 16.5063 5.91992L14.9197 8.61326C14.7853 8.83783 14.7019 9.08918 14.6754 9.34954C14.649 9.60989 14.68 9.87288 14.7663 10.1199C14.8535 10.3608 14.9897 10.5811 15.1663 10.7666L12.2997 15.1733C12.1644 15.379 12.0722 15.6101 12.0288 15.8525C11.9854 16.0949 11.9916 16.3436 12.0471 16.5836C12.1025 16.8235 12.2061 17.0497 12.3515 17.2485C12.4969 17.4472 12.6811 17.6144 12.893 17.7399L9.65967 22.4466C9.46872 22.7227 9.35694 23.0458 9.33644 23.3809C9.31594 23.7159 9.38751 24.0502 9.54338 24.3476C9.69925 24.6449 9.93349 24.8939 10.2207 25.0677C10.508 25.2414 10.8373 25.3332 11.173 25.3333H12.6997V24.6666H11.173C10.9593 24.6657 10.7499 24.6067 10.5673 24.4959C10.3846 24.385 10.2356 24.2265 10.1363 24.0373C10.0369 23.8482 9.9909 23.6355 10.0032 23.4222C10.0156 23.2089 10.0858 23.003 10.2063 22.8266L13.9863 17.3333H13.833C13.6232 17.3335 13.4173 17.277 13.237 17.1697C13.0568 17.0624 12.9089 16.9083 12.8091 16.7237C12.7093 16.5392 12.6614 16.3311 12.6703 16.1215C12.6792 15.9119 12.7446 15.7087 12.8597 15.5333L16.073 10.5866Z" fill="black"/>
<path opacity="0.07" d="M16.0735 10.5871C15.9179 10.5305 15.7767 10.4402 15.66 10.3226C15.5433 10.205 15.4541 10.0631 15.3987 9.90707C15.3433 9.751 15.323 9.58461 15.3394 9.4198C15.3558 9.25499 15.4084 9.09585 15.4935 8.95375L17.0602 6.29375C16.9735 6.22708 16.8802 6.15375 16.7869 6.09375L15.2069 8.78042C15.0196 9.09256 14.9561 9.46357 15.0289 9.82024C15.1017 10.1769 15.3055 10.4933 15.6002 10.7071L12.5802 15.3537C12.4296 15.5774 12.3437 15.8383 12.3319 16.1077C12.3202 16.3771 12.383 16.6445 12.5135 16.8804C12.604 17.0536 12.7286 17.2067 12.8799 17.3304C13.0311 17.4542 13.2058 17.546 13.3935 17.6004L9.93352 22.6404C9.77788 22.8665 9.68698 23.1308 9.67064 23.4047C9.6543 23.6787 9.71313 23.9519 9.84079 24.1949C9.96845 24.4379 10.1601 24.6413 10.395 24.7833C10.6298 24.9253 10.8991 25.0003 11.1735 25.0004H12.7002V24.6671H11.1735C10.9599 24.6662 10.7505 24.6072 10.5678 24.4963C10.3852 24.3855 10.2361 24.227 10.1368 24.0378C10.0374 23.8487 9.99142 23.636 10.0038 23.4227C10.0161 23.2094 10.0863 23.0035 10.2069 22.8271L13.9869 17.3337H13.8335C13.6237 17.334 13.4178 17.2775 13.2375 17.1702C13.0573 17.0629 12.9094 16.9088 12.8096 16.7242C12.7099 16.5397 12.6619 16.3316 12.6708 16.122C12.6797 15.9124 12.7451 15.7092 12.8602 15.5337L16.0735 10.5871Z" fill="black"/>
<defs>
<linearGradient id="paint0_linear_3598_7436" x1="10.697" y1="29.3553" x2="10.697" y2="22.3067" gradientUnits="userSpaceOnUse">
<stop stop-color="#C26715"/>
<stop offset="0.508" stop-color="#B85515"/>
<stop offset="1" stop-color="#AD3F16"/>
</linearGradient>
<linearGradient id="paint1_linear_3598_7436" x1="4.51887" y1="-2.97333" x2="17.2682" y2="32.0533" gradientUnits="userSpaceOnUse">
<stop stop-color="#21AD64"/>
<stop offset="1" stop-color="#088242"/>
</linearGradient>
<linearGradient id="paint2_linear_3598_7436" x1="20" y1="29.121" x2="20" y2="24.7923" gradientUnits="userSpaceOnUse">
<stop stop-color="#C26715"/>
<stop offset="0.508" stop-color="#B85515"/>
<stop offset="1" stop-color="#AD3F16"/>
</linearGradient>
<linearGradient id="paint3_linear_3598_7436" x1="10.0511" y1="-3.84414" x2="23.4365" y2="32.9312" gradientUnits="userSpaceOnUse">
<stop stop-color="#33C481"/>
<stop offset="1" stop-color="#21A366"/>
</linearGradient>
</defs>
</svg>
