<svg width="32" height="32" viewBox="0 0 32 32" fill="none" xmlns="http://www.w3.org/2000/svg">
<path d="M10.0666 11.5335C13.3333 7.73347 21.5333 8.00013 23.3333 8.00013C21.5333 10.4668 23.6666 18.0001 19.8666 21.2668C17.1999 23.6001 14.1999 23.3335 12.3999 18.9335C8.59995 18.4668 7.73328 14.2001 10.0666 11.5335Z" fill="#558B2F"/>
<path d="M23.3335 8C21.3335 9 17.6002 11.7333 12.3335 18.9333C12.4002 19.1333 12.4002 19.1333 12.3335 18.9333C11.9335 18.8667 11.5335 18.8 11.2002 18.6C10.2002 20.6 9.8002 22.4667 10.0002 23.7333C10.0669 24.2 10.5335 24.6 11.0002 24.6C11.0669 24.6 11.1335 24.6 11.1335 24.6C11.6669 24.5333 12.0669 24 11.9335 23.4667C11.9335 23.4667 11.9335 21.8667 12.7335 19.9333C14.5335 23.2667 17.2669 23.3333 19.7335 21.2667C23.6669 18 21.5335 10.4667 23.3335 8Z" fill="#7CB342"/>
</svg>
