<svg width="33" height="32" viewBox="0 0 33 32" fill="none" xmlns="http://www.w3.org/2000/svg">
<g clip-path="url(#clip0_2649_4600)">
<path d="M10.3555 14C12.5646 14 14.3555 12.2091 14.3555 10C14.3555 7.79086 12.5646 6 10.3555 6C8.14633 6 6.35547 7.79086 6.35547 10C6.35547 12.2091 8.14633 14 10.3555 14Z" stroke="white" stroke-width="2" stroke-linecap="round" stroke-linejoin="round"/>
<path d="M22.3555 14C24.5646 14 26.3555 12.2091 26.3555 10C26.3555 7.79086 24.5646 6 22.3555 6C20.1463 6 18.3555 7.79086 18.3555 10C18.3555 12.2091 20.1463 14 22.3555 14Z" stroke="white" stroke-width="2" stroke-linecap="round" stroke-linejoin="round"/>
<path d="M10.3555 26C12.5646 26 14.3555 24.2091 14.3555 22C14.3555 19.7909 12.5646 18 10.3555 18C8.14633 18 6.35547 19.7909 6.35547 22C6.35547 24.2091 8.14633 26 10.3555 26Z" stroke="white" stroke-width="2" stroke-linecap="round" stroke-linejoin="round"/>
<path d="M22.3555 26C24.5646 26 26.3555 24.2091 26.3555 22C26.3555 19.7909 24.5646 18 22.3555 18C20.1463 18 18.3555 19.7909 18.3555 22C18.3555 24.2091 20.1463 26 22.3555 26Z" stroke="white" stroke-width="2" stroke-linecap="round" stroke-linejoin="round"/>
</g>
<defs>
<clipPath id="clip0_2649_4600">
<rect width="32" height="32" fill="white" transform="translate(0.355469)"/>
</clipPath>
</defs>
</svg>
