<svg width="33" height="32" viewBox="0 0 33 32" fill="none" xmlns="http://www.w3.org/2000/svg">
<g clip-path="url(#clip0_2649_4614)">
<path d="M16.3555 17C18.5646 17 20.3555 15.2091 20.3555 13C20.3555 10.7909 18.5646 9 16.3555 9C14.1463 9 12.3555 10.7909 12.3555 13C12.3555 15.2091 14.1463 17 16.3555 17Z" stroke="white" stroke-width="2" stroke-linecap="round" stroke-linejoin="round"/>
<path d="M26.3555 13C26.3555 22 16.3555 29 16.3555 29C16.3555 29 6.35547 22 6.35547 13C6.35547 10.3478 7.40904 7.8043 9.2844 5.92893C11.1598 4.05357 13.7033 3 16.3555 3C19.0076 3 21.5512 4.05357 23.4265 5.92893C25.3019 7.8043 26.3555 10.3478 26.3555 13Z" stroke="white" stroke-width="2" stroke-linecap="round" stroke-linejoin="round"/>
</g>
<defs>
<clipPath id="clip0_2649_4614">
<rect width="32" height="32" fill="white" transform="translate(0.355469)"/>
</clipPath>
</defs>
</svg>
